<?xml version="1.0" encoding="UTF-8" standalone="no"?>
<!-- Created with Inkscape (http://www.inkscape.org/) -->

<svg
   xmlns:dc="http://purl.org/dc/elements/1.1/"
   xmlns:cc="http://creativecommons.org/ns#"
   xmlns:rdf="http://www.w3.org/1999/02/22-rdf-syntax-ns#"
   xmlns:svg="http://www.w3.org/2000/svg"
   xmlns="http://www.w3.org/2000/svg"
   xmlns:xlink="http://www.w3.org/1999/xlink"
   xmlns:sodipodi="http://sodipodi.sourceforge.net/DTD/sodipodi-0.dtd"
   xmlns:inkscape="http://www.inkscape.org/namespaces/inkscape"
   version="1.1"
   id="svg2"
   xml:space="preserve"
   width="1216.3527"
   height="455.84509"
   viewBox="0 0 1216.3527 455.84511"
   sodipodi:docname="banner-1920x720.svg"
   inkscape:export-filename="/home/emanuelvictor/Desktop/eps/7228.eps.png"
   inkscape:export-xdpi="864"
   inkscape:export-ydpi="864"
   inkscape:version="0.92.4 5da689c313, 2019-01-14"><metadata
     id="metadata8"><rdf:RDF><cc:Work
         rdf:about=""><dc:format>image/svg+xml</dc:format><dc:type
           rdf:resource="http://purl.org/dc/dcmitype/StillImage" /><dc:title /></cc:Work></rdf:RDF></metadata><defs
     id="defs6"><linearGradient
       x1="0"
       y1="0"
       x2="1"
       y2="0"
       gradientUnits="userSpaceOnUse"
       gradientTransform="matrix(-660.0001,430.00001,430.00005,659.99999,664.86785,-441.0957)"
       spreadMethod="pad"
       id="linearGradient24"><stop
         style="stop-opacity:1;stop-color:#402a85"
         offset="0"
         id="stop14" /><stop
         style="stop-opacity:1;stop-color:#402a85"
         offset="0.020202"
         id="stop16" /><stop
         style="stop-opacity:1;stop-color:#352058"
         offset="0.393939"
         id="stop18" /><stop
         style="stop-opacity:1;stop-color:#1b1d46"
         offset="1"
         id="stop20" /><stop
         style="stop-opacity:1;stop-color:#1b1d46"
         offset="1"
         id="stop22" /></linearGradient><linearGradient
       x1="0"
       y1="0"
       x2="1"
       y2="0"
       gradientUnits="userSpaceOnUse"
       gradientTransform="matrix(-660.00007,429.99999,430.00005,660,678.15364,-519.9779)"
       spreadMethod="pad"
       id="linearGradient24-6"
       xlink:href="#linearGradient24"><stop
         style="stop-opacity:1;stop-color:#402a85"
         offset="0"
         id="stop14-7" /><stop
         style="stop-opacity:1;stop-color:#402a85"
         offset="0.020202"
         id="stop16-5" /><stop
         style="stop-opacity:1;stop-color:#352058"
         offset="0.393939"
         id="stop18-3" /><stop
         style="stop-opacity:1;stop-color:#1b1d46"
         offset="1"
         id="stop20-5" /><stop
         style="stop-opacity:1;stop-color:#1b1d46"
         offset="1"
         id="stop22-6" /></linearGradient></defs><sodipodi:namedview
     pagecolor="#ffffff"
     bordercolor="#666666"
     borderopacity="1"
     objecttolerance="10"
     gridtolerance="10"
     guidetolerance="10"
     inkscape:pageopacity="0"
     inkscape:pageshadow="2"
     inkscape:window-width="1920"
     inkscape:window-height="1016"
     id="namedview4"
     showgrid="false"
     inkscape:zoom="1.7034845"
     inkscape:cx="429.30844"
     inkscape:cy="239.22594"
     inkscape:window-x="0"
     inkscape:window-y="0"
     inkscape:window-maximized="1"
     inkscape:current-layer="g10"
     inkscape:snap-text-baseline="true" /><g
     id="g10"
     inkscape:groupmode="layer"
     inkscape:label="ink_ext_XXXXXX"
     transform="matrix(1.3333333,0,0,-1.3333333,-15.910069,-134.56653)"><path
   inkscape:connector-curvature="0"
   id="path26-2"
   style="fill:url(#linearGradient24-6);fill-opacity:1;fill-rule:nonzero;stroke:none;stroke-width:0.10000002"
   d="M 924.19708,-442.80872 H 11.932552 V -100.9249 H 924.19708 Z" /><path
   inkscape:connector-curvature="0"
   id="path16"
   style="fill:#ffffff;fill-opacity:1;fill-rule:nonzero;stroke:none;stroke-width:0.1"
   d="m 756.79655,-442.77049 h 119.01002 c 0.4381,1.36146 0.59944,2.83924 0.41455,4.36209 -0.9692,7.84779 -10.54813,11.63376 -17.70348,12.04941 h -0.0233 c -0.46071,0.0231 -0.87641,0.0459 -1.31566,0.0459 -0.11541,0.59957 0,1.20006 0,1.82309 0,1.52376 -0.18373,3.00063 -0.53088,4.43151 -0.43832,1.68511 -1.10723,3.27844 -1.98457,4.73167 v 0.0235 c -2.6544,4.43147 -7.15535,7.64053 -12.41822,8.54025 -0.99274,0.16134 -2.00788,0.25436 -3.04656,0.25436 -1.31543,0 -2.60847,-0.16249 -3.85442,-0.43924 -0.716,3.94744 -2.37766,7.57105 -4.75531,10.61761 -4.40792,5.74805 -11.35599,9.44113 -19.18025,9.44113 -5.07799,0 -9.80975,-1.5474 -13.71126,-4.22419 -5.6091,-3.85443 -9.53299,-9.97109 -10.43272,-17.05812 v -0.0231 c -0.0919,-0.80786 -0.16134,-1.61572 -0.18489,-2.44713 0,0.62298 -2.03142,0.76193 -3.41633,0.80787 h -0.0231 c -0.57704,0.0235 -1.03868,0.0235 -1.20002,0.0235 -1.61595,0.0459 -3.2543,-0.18489 -4.84648,-0.64652 -1.80061,-0.50757 -3.53174,-1.31543 -5.12507,-2.35411 -0.83025,-0.53111 -1.61573,-1.1317 -2.35411,-1.80061 -3.07011,-2.74627 -5.23933,-6.46289 -5.56201,-10.54818 -0.0236,-0.16134 -0.093,-1.08466 -0.0695,-2.00793 0.0231,-1.08558 0.1378,-2.19276 0.5535,-2.19276 l -0.27675,-0.0469 c -7.24813,-1.08466 -9.64841,-7.82435 -7.96321,-13.36397" /><path
   inkscape:connector-curvature="0"
   id="path18"
   style="fill:#ffffff;fill-opacity:1;fill-rule:nonzero;stroke:none;stroke-width:0.1"
   d="m 519.26215,-442.77049 h 119.00956 c 0.43855,1.36146 0.60013,2.86177 0.41547,4.36209 -0.80786,6.60175 -7.68622,10.31828 -14.10295,11.58778 -1.73114,0.34623 -3.4161,0.50761 -4.9395,0.50761 -0.11541,0.59957 0,1.20007 0,1.82309 0,9.92511 -8.03245,17.98134 -17.98069,17.98134 -1.31566,0 -2.60824,-0.16249 -3.83157,-0.43925 -2.05428,11.40309 -11.97944,20.05875 -23.95887,20.05875 -13.24893,0 -23.95887,-10.57168 -24.3051,-23.75183 0,0.43925 -0.99251,0.64652 -2.07736,0.73839 -1.10792,0.093 -2.30817,0.0695 -2.58515,0.093 -7.27076,0.18488 -14.77233,-4.98612 -17.14975,-11.91061 -0.39239,-1.10811 -0.64629,-2.26219 -0.73862,-3.43881 -0.0231,-0.36968 -0.30006,-4.2007 0.5078,-4.2007 l -0.27698,-0.0469 c -4.20088,-0.62302 -6.78604,-3.16202 -7.87088,-6.2546 -0.80786,-2.23875 -0.83094,-4.77774 -0.11541,-7.10937" /><path
   inkscape:connector-curvature="0"
   id="path20"
   style="fill:#ffffff;fill-opacity:1;fill-rule:nonzero;stroke:none;stroke-width:0.1"
   d="m 841.37944,-282.76795 h 4.61635 l 0.28852,0.28852 -0.28852,0.28852 h -4.61635 l -0.28853,-0.28852 z m -6.92453,0 h 4.61635 l 0.28852,0.28852 -0.28852,0.28852 h -4.61635 l -0.28852,-0.28852 z m -6.92453,0 h 4.61635 l 0.28852,0.28852 -0.28852,0.28852 h -4.61635 l -0.28852,-0.28852 z m -6.92453,0 h 4.61635 l 0.28853,0.28852 -0.28853,0.28852 h -4.61635 l -0.28852,-0.28852 z m -2.59762,0 h 0.28944 l 0.28853,0.28852 -0.28853,0.28852 h -0.28944 l -0.28852,-0.28852 0.28852,-0.28852" /><path
   inkscape:connector-curvature="0"
   id="path22"
   style="fill:#ffffff;fill-opacity:1;fill-rule:nonzero;stroke:none;stroke-width:0.1"
   d="m 608.7963,-205.10914 0.0992,0.0139 c -0.2562,-0.0369 -0.17542,1.1564 -0.16619,1.27412 0.21467,2.58977 2.85522,4.69252 5.40345,4.62789 0.16157,-0.002 1.41029,0.0162 1.40337,-0.24697 0.10386,3.97467 3.34224,7.16688 7.34,7.16688 3.61691,0 6.61061,-2.61285 7.2292,-6.05204 0.37393,0.0831 0.7617,0.13157 1.16102,0.13157 2.99832,0 5.42883,-2.4282 5.42883,-5.42883 v -0.54935 c 2.18353,0 5.43575,-1.13331 5.74736,-3.64922 0.23312,-1.88347 -1.32259,-3.59383 -3.20145,-3.59383 h -29.80778 c -3.83619,0 -4.4317,5.74274 -0.63706,6.30593" /><path
   inkscape:connector-curvature="0"
   id="path24"
   style="fill:#ffffff;fill-opacity:1;fill-rule:nonzero;stroke:none;stroke-width:0.1"
   d="m 906.08867,-260.04142 -0.0983,0.0136 c 0.25697,-0.0353 0.17496,1.15663 0.16503,1.27296 -0.21373,2.58954 -2.85456,4.69483 -5.40249,4.62997 -0.16226,-0.005 -1.41029,0.0162 -1.40383,-0.2479 -0.10387,3.97353 -3.34155,7.16781 -7.34023,7.16781 -3.61645,0 -6.609,-2.61378 -7.22852,-6.05157 -0.37508,0.0819 -0.7617,0.13064 -1.16216,0.13064 -2.99786,0 -5.42768,-2.42982 -5.42768,-5.42791 v -0.54888 c -2.18377,0 -5.43506,-1.13355 -5.74713,-3.65177 -0.23266,-1.88255 1.32282,-3.59383 3.20075,-3.59383 h 29.80804 c 3.83734,0 4.43241,5.74251 0.63655,6.30686" /><path
   inkscape:connector-curvature="0"
   id="path26"
   style="fill:#ffffff;fill-opacity:1;fill-rule:nonzero;stroke:none;stroke-width:0.1"
   d="m 10.216981,-396.95319 v -45.8173 h 84.086855 c 0.438554,1.36146 0.600126,2.83924 0.415472,4.36209 -0.646289,5.3557 -5.331887,8.81797 -10.502201,10.61761 -2.88522,0.9927 -5.932013,1.47778 -8.51717,1.47778 -0.115409,0.59957 0,1.20007 0,1.82309 0,9.92511 -8.055534,17.98134 -17.980692,17.98134 -1.338742,0 -2.608239,-0.16249 -3.854654,-0.43925 -0.369308,2.03143 -0.969434,3.99338 -1.823459,5.81638 -0.207736,0.46256 -0.438553,0.92327 -0.669371,1.36251 -1.246415,2.33057 -2.839057,4.43147 -4.731761,6.20854 -4.362453,4.13232 -10.22522,6.67132 -16.711195,6.67132 -8.12478,0 -15.280126,-3.97099 -19.711824,-10.06411" /><path
   inkscape:connector-curvature="0"
   id="path28"
   style="fill:#ffffff;fill-opacity:1;fill-rule:nonzero;stroke:none;stroke-width:0.1"
   d="m 823.2801,-412.01866 c 0,-11.3379 9.19047,-20.52642 20.52754,-20.52642 11.33614,0 20.52568,9.18852 20.52568,20.52642 0,11.33546 -9.18954,20.52477 -20.52568,20.52477 -11.33707,0 -20.52754,-9.18931 -20.52754,-20.52477" /><path
   inkscape:connector-curvature="0"
   id="path30"
   style="fill:#baa4d9;fill-opacity:1;fill-rule:nonzero;stroke:none;stroke-width:0.1"
   d="m 863.02574,-404.79568 c 4.80032,3.71293 10.79903,5.92647 17.32771,5.92647 1.45438,0 2.88522,-0.11541 4.27013,-0.32268 l 0.33537,-0.0452 c 0.002,0.12533 0.002,0.25159 0.002,0.37785 0,12.20102 -9.89007,22.09086 -22.09086,22.09086 -9.64656,0 -17.84889,-6.18338 -20.86014,-14.80303 0.59136,0.0515 1.19102,0.0776 1.79692,0.0776 8.79345,0 16.29503,-5.5297 19.2181,-13.30179" /><path
   inkscape:connector-curvature="0"
   id="path32"
   style="fill:#ffffff;fill-opacity:1;fill-rule:nonzero;stroke:none;stroke-width:0.1"
   d="m 853.30532,-418.77723 c 0.39124,1.19564 0.82864,2.32272 1.3579,3.45049 v 0.0236 c 1.91602,4.13117 4.80124,7.73239 8.35537,10.5022 0.002,0.002 0.005,0.005 0.007,0.005 -2.92307,7.77209 -10.42465,13.30178 -19.2181,13.30178 -0.6059,0 -1.20556,-0.0261 -1.79692,-0.0776 -0.79794,-2.28186 -1.23072,-4.73338 -1.23072,-7.28784 0,-8.77384 5.11492,-16.35365 12.52532,-19.91794" /><path
   inkscape:connector-curvature="0"
   id="path34"
   style="fill:#f5aa29;fill-opacity:1;fill-rule:nonzero;stroke:none;stroke-width:0.1"
   d="m 761.83299,-389.07192 c 0,-18.08503 18.99214,-41.83491 18.99214,-41.83491 0,0 16.91639,23.46136 16.91639,41.54638 0,18.08664 -16.91639,49.33727 -16.91639,49.33727 0,0 -18.99214,-30.96211 -18.99214,-49.04874" /><path
   inkscape:connector-curvature="0"
   id="path36"
   style="fill:#e6554e;fill-opacity:1;fill-rule:nonzero;stroke:none;stroke-width:0.1"
   d="m 766.09319,-382.63788 c 0,-13.79505 14.48566,-31.91054 14.48566,-31.91054 0,0 12.90316,17.89552 12.90316,31.69034 0,13.79504 -12.90316,37.63227 -12.90316,37.63227 0,0 -14.48566,-23.61726 -14.48566,-37.41207" /><path
   inkscape:connector-curvature="0"
   id="path38"
   style="fill:#365568;fill-opacity:1;fill-rule:nonzero;stroke:none;stroke-width:0.1"
   d="m 798.20754,-326.81164 32.0855,-28.07227 3.02417,-7.69546 10.49043,-37.78023 -3.3921,-0.32637 -29.04332,21.15766 -1.45346,15.07262 -13.40727,2.32526 c 0,0 -0.65529,19.3896 1.69605,35.31879" /><path
   inkscape:connector-curvature="0"
   id="path40"
   style="fill:#365568;fill-opacity:1;fill-rule:nonzero;stroke:none;stroke-width:0.1"
   d="m 762.71402,-326.81164 -32.08457,-28.07227 -3.02509,-7.69546 -10.48951,-37.78023 3.39094,-0.32637 29.04355,21.15766 1.45415,15.07262 13.40635,2.32526 c 0,0 0.65645,19.3896 -1.69582,35.31879" /><path
   inkscape:connector-curvature="0"
   id="path42"
   style="fill:#365568;fill-opacity:1;fill-rule:nonzero;stroke:none;stroke-width:0.1"
   d="m 768.85308,-362.97153 c 0.18396,-5.10961 5.06275,-9.21124 11.08917,-9.21124 6.02665,0 10.90452,4.10163 11.08917,9.21124 h -22.17834" /><path
   inkscape:connector-curvature="0"
   id="path44"
   style="fill:#f5aa29;fill-opacity:1;fill-rule:nonzero;stroke:none;stroke-width:0.1"
   d="m 750.19471,-226.56386 c 16.34212,13.59585 38.01658,15.39576 55.21249,4.63989 6.67017,-4.17826 12.11701,-10.11004 15.92642,-17.05811 3.80849,-6.94692 5.97771,-14.91013 6.09312,-23.10415 0.0919,-7.15535 -1.3849,-14.12581 -4.31606,-20.38143 -0.71599,-1.56979 -1.52385,-3.0701 -2.42358,-4.52356 -2.1009,-3.43964 -4.50094,-6.46382 -7.10941,-8.97927 -2.63086,-2.56253 -4.75531,-5.70096 -6.14021,-9.07136 -1.52271,-3.66954 -2.90761,-7.34023 -4.10763,-10.87082 -1.33898,-3.97006 -2.63202,-8.10216 -3.55529,-12.25687 -0.69245,-2.97709 -1.17648,-5.97772 -1.36136,-8.93241 -0.0235,-0.32384 -0.0695,-0.64653 -0.13895,-0.96921 -0.23082,-1.15409 -0.73839,-2.19277 -1.45438,-3.0701 -1.36137,-1.6852 -3.46227,-2.74743 -5.81638,-2.74743 h -21.88174 c -1.89247,0 -3.64599,0.69246 -4.96258,1.84655 -1.22241,1.01629 -2.09974,2.44712 -2.40004,4.06285 -0.0695,0.30029 -0.0919,0.60058 -0.11541,0.92327 -0.16134,2.76981 -0.57704,5.51608 -1.20002,8.2635 v 0.0231 c -1.10815,5.17101 -2.76981,10.17952 -4.36314,14.70401 -0.9916,2.83813 -2.09975,5.74689 -3.36925,8.79345 -0.30029,0.73839 -0.6239,1.47793 -0.94681,2.2387 -1.20002,2.86284 -2.88522,4.57042 -5.00851,6.76319 -0.76193,0.78547 -1.56979,1.59334 -2.37765,2.51568 -2.539,2.8626 -4.73177,6.00218 -6.50883,9.34904 -0.83141,1.59218 -1.59218,3.2079 -2.2387,4.84717 l -0.0235,0.0224 c -7.34023,18.74308 -1.63812,39.51574 14.58744,52.97264" /><path
   inkscape:connector-curvature="0"
   id="path46"
   style="fill:#e6554e;fill-opacity:1;fill-rule:nonzero;stroke:none;stroke-width:0.1"
   d="m 761.75913,-337.97929 c 0.62298,0.34622 1.33898,0.60058 2.07736,0.76193 0.69245,0.16134 1.40845,0.2532 2.14684,0.2532 h 27.92893 c 1.13054,0 2.19276,-0.18373 3.13842,-0.52995 0.43925,-0.1625 0.85403,-0.34623 1.22357,-0.57705 1.80061,-0.99274 2.95469,-2.60847 2.95469,-4.43262 v -2.76981 c 0,-0.89973 -0.27675,-1.73113 -0.78431,-2.46952 -0.80879,-1.24595 -2.23986,-2.2387 -3.97099,-2.70033 -0.80786,-0.25436 -1.66166,-0.36977 -2.56138,-0.36977 h -27.92893 c -0.53112,0 -1.03868,0.0471 -1.52386,0.11541 -2.19277,0.36977 -4.03931,1.45438 -5.03206,2.95469 -0.50757,0.73839 -0.78432,1.56979 -0.78432,2.46952 v 2.76981 c 0,1.87008 1.24596,3.53174 3.11604,4.52449" /><path
   inkscape:connector-curvature="0"
   id="path48"
   style="fill:#266cbb;fill-opacity:1;fill-rule:nonzero;stroke:none;stroke-width:0.1"
   d="m 759.42741,-347.74311 c 0.27791,0.0459 0.57705,0.0695 0.87734,0.0695 h 39.26254 c 0.30029,0 0.59943,-0.0236 0.87734,-0.0695 3.34685,-0.4157 5.93178,-3.27738 5.93178,-6.73964 v -3.39279 c 0,-2.2387 -1.08461,-4.24774 -2.76981,-5.47015 h -0.0236 c -1.13054,-0.85494 -2.51545,-1.33897 -4.01576,-1.33897 H 760.3047 c -1.40729,0 -2.72388,0.43809 -3.83088,1.17648 -1.80061,1.22356 -2.97824,3.30092 -2.97824,5.63264 v 3.39279 c 0,3.46226 2.60847,6.32394 5.93178,6.73964" /><path
   inkscape:connector-curvature="0"
   id="path50"
   style="fill:#f28e24;fill-opacity:1;fill-rule:nonzero;stroke:none;stroke-width:0.1"
   d="m 748.5836,-245.51422 c 2.01435,9.2e-4 6.74611,10.06042 17.77573,15.15087 6.24546,2.88337 12.55694,3.18828 17.11189,3.18828 0.60959,0 1.18848,-0.006 1.73021,-0.0109 0.54381,-0.006 1.05045,-0.0118 1.51855,-0.0118 2.2207,0 3.52989,0.12441 3.45326,0.96297 -0.14888,1.62657 -5.29542,4.50464 -12.82861,4.50464 -4.06631,0 -8.82693,-0.83856 -13.87145,-3.16382 -11.92957,-5.49923 -17.05257,-18.60159 -15.31867,-20.42389 0.12695,-0.13342 0.2696,-0.19643 0.42909,-0.19643" /><path
   inkscape:connector-curvature="0"
   id="path52"
   style="fill:#f6c536;fill-opacity:1;fill-rule:nonzero;stroke:none;stroke-width:0.1"
   d="m 809.8142,-273.69036 c 4.77147,0 13.20808,9.57801 6.44397,25.04025 -4.76869,10.90152 -11.65444,14.14566 -16.88662,14.14566 -3.13034,0 -5.66772,-1.16032 -6.80635,-2.53715 -2.17753,-2.63201 1.08185,-6.06358 2.77259,-7.96598 3.76232,-4.23665 6.51875,-9.39219 8.36067,-14.79933 1.06315,-3.12065 1.73113,-6.33317 2.51568,-9.52838 0.46972,-1.91602 1.20002,-4.35507 3.60006,-4.35507" /><path
   inkscape:connector-curvature="0"
   id="path54"
   style="fill:#ffffff;fill-opacity:1;fill-rule:nonzero;stroke:none;stroke-width:0.1"
   d="m 821.76363,-214.90042 c 4.58473,4.73407 9.16946,9.46814 13.75442,14.20221 1.54625,1.59495 -0.93065,3.99545 -2.47782,2.39819 -4.58473,-4.73407 -9.16946,-9.46583 -13.75442,-14.20013 -1.54625,-1.59679 0.93065,-3.99683 2.47782,-2.40027" /><path
   inkscape:connector-curvature="0"
   id="path56"
   style="fill:#ffffff;fill-opacity:1;fill-rule:nonzero;stroke:none;stroke-width:0.1"
   d="m 828.99838,-226.31596 c 5.60356,4.15841 11.20712,8.31682 16.81091,12.47499 1.76621,1.31105 -9.3e-4,4.27705 -1.78884,2.94985 -5.60287,-4.15794 -11.20642,-8.31636 -16.81021,-12.47453 -1.76714,-1.31105 9.2e-4,-4.27659 1.78814,-2.95031" /><path
   inkscape:connector-curvature="0"
   id="path58"
   style="fill:#ffffff;fill-opacity:1;fill-rule:nonzero;stroke:none;stroke-width:0.1"
   d="m 834.07083,-238.26332 c 6.45389,2.65164 12.9087,5.30327 19.36259,7.95513 2.03051,0.83395 1.08739,4.15634 -0.97012,3.31062 -6.45389,-2.65163 -12.90778,-5.30326 -19.3626,-7.95513 -2.0305,-0.83487 -1.08738,-4.15633 0.97013,-3.31062" /><path
   inkscape:connector-curvature="0"
   id="path60"
   style="fill:#ffffff;fill-opacity:1;fill-rule:nonzero;stroke:none;stroke-width:0.1"
   d="m 837.97211,-250.59775 c 6.91552,0.93043 13.83105,1.86201 20.74658,2.79336 2.17291,0.29198 2.14406,3.74432 -0.0549,3.44772 -6.91553,-0.93043 -13.83105,-1.86177 -20.74658,-2.7922 -2.17292,-0.29222 -2.14406,-3.74455 0.0549,-3.44888" /><path
   inkscape:connector-curvature="0"
   id="path62"
   style="fill:#baa4d9;fill-opacity:1;fill-rule:nonzero;stroke:none;stroke-width:0.1"
   d="m 875.80657,-442.77049 h 13.40982 c -2.76982,3.71654 -4.43147,8.30944 -4.43147,13.29547 0,10.27147 6.994,18.88005 16.48001,21.37311 v 0 0 c -0.80796,0.87733 -1.66175,1.70874 -2.58502,2.49306 -3.83181,3.25499 -8.51671,5.517 -13.71011,6.37103 l -0.0115,6.9e-4 c -0.20104,-12.02675 -10.01356,-21.71387 -22.08809,-21.71387 -0.19135,0 -0.38339,0.002 -0.57358,0.009 -0.97105,-2.01063 -2.26132,-3.83824 -3.80295,-5.41699 v 0 h 0.0233 c 7.15535,-0.41565 16.73428,-4.20161 17.70348,-12.04941 0.18558,-1.52285 0.0242,-3.00063 -0.41386,-4.36209" /><path
   inkscape:connector-curvature="0"
   id="path64"
   style="fill:#ffffff;fill-opacity:1;fill-rule:nonzero;stroke:none;stroke-width:0.1"
   d="m 856.74058,-442.77049 h 19.06599 v 0 c 0.4381,1.36146 0.59944,2.83924 0.41455,4.36209 -0.9692,7.84779 -10.54813,11.63376 -17.70348,12.04941 h -0.0233 v 0 c -1.76991,-1.81228 -3.87266,-3.29907 -6.20876,-4.3603 v -0.002 c 0.55465,-4.40806 2.1009,-8.5168 4.45501,-12.0485" /><path
   inkscape:connector-curvature="0"
   id="path66"
   style="fill:#ffffff;fill-opacity:1;fill-rule:nonzero;stroke:none;stroke-width:0.1"
   d="m 852.28557,-430.71929 c 2.3361,1.06123 4.43885,2.54802 6.20876,4.3603 1.54163,1.57875 2.8319,3.40636 3.80295,5.41699 -3.21506,0.0812 -6.26,0.84934 -8.99196,2.16477 -0.002,-0.005 -0.002,-0.007 -0.005,-0.0115 -0.80878,-2.65431 -1.2471,-5.4701 -1.2471,-8.37785 0,-1.20099 0.0695,-2.39835 0.23081,-3.55244" /><path
   inkscape:connector-curvature="0"
   id="path68"
   style="fill:#d9cfe4;fill-opacity:1;fill-rule:nonzero;stroke:none;stroke-width:0.1"
   d="m 862.87086,-420.951 c 12.07453,0 21.88705,9.68712 22.08809,21.71387 l -0.33537,0.0452 c -1.38491,0.20727 -2.81575,0.32268 -4.27013,0.32268 -6.52868,0 -12.52739,-2.21354 -17.32771,-5.92647 0.84595,-2.24678 1.30758,-4.68214 1.30758,-7.22298 0,-3.1989 -0.73123,-6.22469 -2.03604,-8.92334 0.1902,-0.007 0.38224,-0.009 0.57358,-0.009" /><path
   inkscape:connector-curvature="0"
   id="path70"
   style="fill:#ffffff;fill-opacity:1;fill-rule:nonzero;stroke:none;stroke-width:0.1"
   d="m 862.29728,-420.942 c 1.30481,2.69865 2.03604,5.72444 2.03604,8.92334 0,2.54084 -0.46163,4.9762 -1.30758,7.22298 -0.002,-0.002 -0.005,-0.005 -0.007,-0.005 -3.55413,-2.76981 -6.43935,-6.37103 -8.35537,-10.5022 v -0.0235 c -0.52926,-1.12778 -0.96666,-2.25486 -1.3579,-3.4505 2.73196,-1.31542 5.7769,-2.08361 8.99196,-2.16476" /><path
   inkscape:connector-curvature="0"
   id="path72"
   style="fill:#baa4d9;fill-opacity:1;fill-rule:nonzero;stroke:none;stroke-width:0.1"
   d="m 645.03698,-417.54651 c 12.20101,0 22.09155,9.89192 22.09155,22.09179 0,12.20101 -9.89054,22.09086 -22.09155,22.09086 -2.30818,0 -4.53326,-0.35338 -6.62678,-1.01075 4.72253,-3.43595 7.7924,-9.00628 7.7924,-15.29329 0,-10.43826 -8.46177,-18.90003 -18.90165,-18.90003 -0.0138,0 -0.0277,0 -0.0439,0 4.02316,-5.44684 10.48836,-8.97858 17.77989,-8.97858" /><path
   inkscape:connector-curvature="0"
   id="path74"
   style="fill:#baa4d9;fill-opacity:1;fill-rule:nonzero;stroke:none;stroke-width:0.1"
   d="m 527.75624,-421.72011 v 0 c 2.33587,6.80469 9.62048,11.91499 16.77121,11.91499 0.12695,0 0.25159,-0.002 0.37854,-0.005 0.27698,-0.0236 1.468,0 2.57361,-0.0903 -2.13506,9.96763 -10.99615,17.44288 -21.60222,17.44288 -12.20102,0 -22.09155,-9.89076 -22.09155,-22.09155 0,-0.36885 0.009,-0.73862 0.0277,-1.10377 0.002,0 0.005,0.002 0.007,0.002 2.539,1.29304 5.40114,2.00788 8.44793,2.00788 6.41673,0 12.09484,-3.18551 15.48786,-8.07857" /><path
   inkscape:connector-curvature="0"
   id="path76"
   style="fill:#ffffff;fill-opacity:1;fill-rule:nonzero;stroke:none;stroke-width:0.1"
   d="m 530.82611,-436.08128 c 9.81668,2.24595 17.14283,11.03327 17.14283,21.53286 0,1.59495 -0.1685,3.14835 -0.48934,4.64867 -1.10561,0.0903 -2.29663,0.0667 -2.57361,0.0903 -0.12695,0.002 -0.25159,0.005 -0.37854,0.005 -7.15073,0 -14.43534,-5.1103 -16.77121,-11.91499 v 0 0 c 2.16968,-3.07005 3.4161,-6.80911 3.4161,-10.82497 0,-1.20007 -0.11541,-2.37761 -0.34623,-3.5317 0,-0.002 0,-0.005 0,-0.005" /><path
   inkscape:connector-curvature="0"
   id="path78"
   style="fill:#baa4d9;fill-opacity:1;fill-rule:nonzero;stroke:none;stroke-width:0.1"
   d="m 903.96533,-442.77049 h 20.2894 v 26.93619 c -4.03931,5.14746 -10.31736,8.44838 -17.38075,8.44838 -1.9385,0 -3.80849,-0.25436 -5.60905,-0.71599 4.59382,-5.03206 7.38616,-11.70223 7.38616,-19.06494 0,-5.77044 -1.73113,-11.12615 -4.68576,-15.60364" /><path
   inkscape:connector-curvature="0"
   id="path80"
   style="fill:#d9cfe4;fill-opacity:1;fill-rule:nonzero;stroke:none;stroke-width:0.1"
   d="m 889.21639,-442.77049 h 14.74894 c 2.95463,4.47749 4.68576,9.8332 4.68576,15.60364 0,7.36271 -2.79234,14.03288 -7.38616,19.06494 v 0 c -9.48601,-2.49306 -16.48001,-11.10164 -16.48001,-21.37311 0,-4.98603 1.66165,-9.57893 4.43147,-13.29547" /><path
   inkscape:connector-curvature="0"
   id="path82"
   style="fill:#baa4d9;fill-opacity:1;fill-rule:nonzero;stroke:none;stroke-width:0.1"
   d="m 627.25709,-408.56793 c -2.70979,3.66676 -4.31167,8.20302 -4.31167,13.11321 0,9.89284 6.50213,18.26621 15.46478,21.08011 -3.11834,2.2694 -6.95684,3.60745 -11.10925,3.60745 -10.43757,0 -18.89935,-8.46178 -18.89935,-18.90074 0,-10.42395 8.4387,-18.87672 18.85549,-18.90003" /><path
   inkscape:connector-curvature="0"
   id="path84"
   style="fill:#d9cfe4;fill-opacity:1;fill-rule:nonzero;stroke:none;stroke-width:0.1"
   d="m 627.30095,-408.56793 c 10.43988,0 18.90165,8.46177 18.90165,18.90003 0,6.28701 -3.06987,11.85734 -7.7924,15.29329 -8.96265,-2.8139 -15.46478,-11.18727 -15.46478,-21.08011 0,-4.91019 1.60188,-9.44645 4.31167,-13.11321 0.0162,0 0.03,0 0.0439,0" /><path
   inkscape:connector-curvature="0"
   id="path86"
   style="fill:#baa4d9;fill-opacity:1;fill-rule:nonzero;stroke:none;stroke-width:0.1"
   d="m 496.38813,-442.77049 h 22.87402 c -0.71553,2.32891 -0.69245,4.8652 0.1131,7.10487 -8.69028,2.67243 -15.09547,10.5617 -15.56172,20.01343 -6.1813,-3.09526 -10.42603,-9.50943 -10.42603,-16.89289 0,-3.76251 1.10792,-7.27076 3.00063,-10.22541" /><path
   inkscape:connector-curvature="0"
   id="path88"
   style="fill:#ffffff;fill-opacity:1;fill-rule:nonzero;stroke:none;stroke-width:0.1"
   d="m 519.26215,-442.77049 h 8.90956 c 1.29258,2.00613 2.21354,4.26743 2.6544,6.68921 -1.59264,-0.36517 -3.2476,-0.55631 -4.94873,-0.55631 -2.26432,0 -4.44554,0.33902 -6.50213,0.97197 -0.80555,-2.23967 -0.82863,-4.77596 -0.1131,-7.10487 v 0" /><path
   inkscape:connector-curvature="0"
   id="path90"
   style="fill:#d9cfe4;fill-opacity:1;fill-rule:nonzero;stroke:none;stroke-width:0.1"
   d="m 519.37525,-435.66562 c 0,0.002 0.002,0.002 0.002,0.005 1.08484,3.09259 3.67,5.63159 7.87088,6.25461 l 0.27698,0.0469 c -0.80786,0 -0.53088,3.83102 -0.5078,4.2007 0.0923,1.17662 0.34623,2.3307 0.73862,3.43881 -3.39302,4.89306 -9.07113,8.07857 -15.48786,8.07857 -3.04679,0 -5.90893,-0.71484 -8.44793,-2.00788 -0.002,0 -0.005,-0.002 -0.007,-0.002 0.46625,-9.45172 6.87144,-17.341 15.56172,-20.01343" /><path
   inkscape:connector-curvature="0"
   id="path92"
   style="fill:#ffffff;fill-opacity:1;fill-rule:nonzero;stroke:none;stroke-width:0.1"
   d="m 525.87738,-436.63759 c 1.70113,0 3.35609,0.19111 4.94873,0.55631 0,0 0,0.002 0,0.005 0.23082,1.15409 0.34623,2.33163 0.34623,3.53169 0,4.01586 -1.24642,7.75492 -3.4161,10.82498 v 0 c -0.39239,-1.10811 -0.64629,-2.2622 -0.73862,-3.43881 -0.0231,-0.36968 -0.30006,-4.2007 0.5078,-4.2007 l -0.27698,-0.0469 c -4.20088,-0.62302 -6.78604,-3.16201 -7.87088,-6.2546 0,-0.002 -0.002,-0.002 -0.002,-0.005 2.05659,-0.63294 4.23781,-0.97197 6.50213,-0.97197" /><path
   inkscape:connector-curvature="0"
   id="path94"
   style="fill:#ffffff;fill-opacity:1;fill-rule:nonzero;stroke:none;stroke-width:0.1"
   d="m 880.11271,-393.83715 c 0,-7.88127 6.3888,-14.26915 14.26914,-14.26915 7.8812,0 14.26924,6.38788 14.26924,14.26915 0,7.88126 -6.38804,14.26914 -14.26924,14.26914 -7.88034,0 -14.26914,-6.38788 -14.26914,-14.26914" /><path
   inkscape:connector-curvature="0"
   id="path96"
   style="fill:#ffffff;fill-opacity:1;fill-rule:nonzero;stroke:none;stroke-width:0.1"
   d="m 685.80629,-362.97153 c 0,-4.41623 3.57998,-7.99668 7.99691,-7.99668 4.41623,0 7.99644,3.58045 7.99644,7.99668 0,4.416 -3.58021,7.99644 -7.99644,7.99644 -4.41693,0 -7.99691,-3.58044 -7.99691,-7.99644" /><path
   inkscape:connector-curvature="0"
   id="path98"
   style="fill:#ffffff;fill-opacity:1;fill-rule:nonzero;stroke:none;stroke-width:0.1"
   d="m 645.03698,-358.80066 c 0,-2.22877 1.8073,-4.03469 4.03469,-4.03469 2.22969,0 4.03469,1.80592 4.03469,4.03469 0,2.22878 -1.805,4.03562 -4.03469,4.03562 -2.22739,0 -4.03469,-1.80684 -4.03469,-4.03562" /><path
   inkscape:connector-curvature="0"
   id="path100"
   style="fill:#ffffff;fill-opacity:1;fill-rule:nonzero;stroke:none;stroke-width:0.1"
   d="m 493.37596,-408.90977 c 0,-1.57603 1.27873,-2.85268 2.85521,-2.85268 1.57418,0 2.85291,1.27665 2.85291,2.85268 0,1.57602 -1.27873,2.8529 -2.85291,2.8529 -1.57648,0 -2.85521,-1.27688 -2.85521,-2.8529" /><path
   inkscape:connector-curvature="0"
   id="path102"
   style="fill:#ffffff;fill-opacity:1;fill-rule:nonzero;stroke:none;stroke-width:0.1"
   d="m 31.946151,-364.69181 c 0,-1.57626 1.276421,-2.85291 2.852905,-2.85291 1.576485,0 2.852906,1.27665 2.852906,2.85291 0,1.57602 -1.276421,2.85359 -2.852906,2.85359 -1.576484,0 -2.852905,-1.27757 -2.852905,-2.85359" /><path
   inkscape:connector-curvature="0"
   id="path104"
   style="fill:#ffffff;fill-opacity:1;fill-rule:nonzero;stroke:none;stroke-width:0.1"
   d="m 498.19081,-394.48367 c 0,-0.88265 0.71554,-1.59772 1.59726,-1.59772 0.88403,0 1.59957,0.71507 1.59957,1.59772 0,0.88264 -0.71554,1.59772 -1.59957,1.59772 -0.88172,0 -1.59726,-0.71508 -1.59726,-1.59772" /><path
   inkscape:connector-curvature="0"
   id="path106"
   style="fill:#ffffff;fill-opacity:1;fill-rule:nonzero;stroke:none;stroke-width:0.1"
   d="m 560.90396,-201.11599 c 0,-0.88172 0.71553,-1.59726 1.59725,-1.59726 0.88404,0 1.59957,0.71554 1.59957,1.59726 0,0.88172 -0.71553,1.59957 -1.59957,1.59957 -0.88172,0 -1.59725,-0.71785 -1.59725,-1.59957" /><path
   inkscape:connector-curvature="0"
   id="path108"
   style="fill:#ffffff;fill-opacity:1;fill-rule:nonzero;stroke:none;stroke-width:0.1"
   d="m 458.93335,-320.90964 c 0,-0.88264 0.71554,-1.59772 1.59726,-1.59772 0.88172,0 1.59726,0.71508 1.59726,1.59772 0,0.88265 -0.71554,1.59864 -1.59726,1.59864 -0.88172,0 -1.59726,-0.71599 -1.59726,-1.59864" /><path
   inkscape:connector-curvature="0"
   id="path110"
   style="fill:#ffffff;fill-opacity:1;fill-rule:nonzero;stroke:none;stroke-width:0.1"
   d="m 840.05039,-338.96211 c 0,-0.88265 0.71599,-1.59865 1.59864,-1.59865 0.88265,0 1.59772,0.716 1.59772,1.59865 0,0.88264 -0.71507,1.59772 -1.59772,1.59772 -0.88265,0 -1.59864,-0.71508 -1.59864,-1.59772" /><path
   inkscape:connector-curvature="0"
   id="path112"
   style="fill:#ffffff;fill-opacity:1;fill-rule:nonzero;stroke:none;stroke-width:0.1"
   d="m 730.86027,-211.46124 c 0,-0.88287 0.71577,-1.59795 1.59864,-1.59795 0.88265,0 1.59749,0.71508 1.59749,1.59795 0,0.88173 -0.71484,1.59726 -1.59749,1.59726 -0.88287,0 -1.59864,-0.71553 -1.59864,-1.59726" /><path
   inkscape:connector-curvature="0"
   id="path114"
   style="fill:#ffffff;fill-opacity:1;fill-rule:nonzero;stroke:none;stroke-width:0.1"
   d="m 49.026654,-352.32784 c 0,-0.88265 0.715535,-1.59772 1.599566,-1.59772 0.881723,0 1.597258,0.71507 1.597258,1.59772 0,0.88265 -0.715535,1.59864 -1.597258,1.59864 -0.884031,0 -1.599566,-0.71599 -1.599566,-1.59864" /><path
   inkscape:connector-curvature="0"
   id="path116"
   style="fill:#ffffff;fill-opacity:1;fill-rule:nonzero;stroke:none;stroke-width:0.1"
   d="m 398.24816,-189.44575 c 0,-0.88288 0.71553,-1.59772 1.59957,-1.59772 0.88172,0 1.59725,0.71484 1.59725,1.59772 0,0.88264 -0.71553,1.59772 -1.59725,1.59772 -0.88404,0 -1.59957,-0.71508 -1.59957,-1.59772" /><path
   inkscape:connector-curvature="0"
   id="path118"
   style="fill:#ffffff;fill-opacity:1;fill-rule:nonzero;stroke:none;stroke-width:0.1"
   d="m 368.99758,-137.9299 c 0,-0.6239 0.50549,-1.12962 1.1287,-1.12962 0.62551,0 1.131,0.50572 1.131,1.12962 0,0.6239 -0.50549,1.12985 -1.131,1.12985 -0.62321,0 -1.1287,-0.50595 -1.1287,-1.12985" /><path
   inkscape:connector-curvature="0"
   id="path120"
   style="fill:#ffffff;fill-opacity:1;fill-rule:nonzero;stroke:none;stroke-width:0.1"
   d="m 229.80301,-370.92851 c 0,-0.6239 0.50549,-1.12985 1.13101,-1.12985 0.62321,0 1.1287,0.50595 1.1287,1.12985 0,0.6239 -0.50549,1.12986 -1.1287,1.12986 -0.62552,0 -1.13101,-0.50596 -1.13101,-1.12986" /><path
   inkscape:connector-curvature="0"
   id="path122"
   style="fill:#ffffff;fill-opacity:1;fill-rule:nonzero;stroke:none;stroke-width:0.1"
   d="m 785.14548,-123.01779 c 0,-0.62413 0.50549,-1.12985 1.13101,-1.12985 0.6232,0 1.12869,0.50572 1.12869,1.12985 0,0.6239 -0.50549,1.12962 -1.12869,1.12962 -0.62552,0 -1.13101,-0.50572 -1.13101,-1.12962" /><path
   inkscape:connector-curvature="0"
   id="path124"
   style="fill:#ffffff;fill-opacity:1;fill-rule:nonzero;stroke:none;stroke-width:0.1"
   d="m 624.35341,-429.47502 c 0,-5.49365 2.70057,-10.34082 6.87836,-13.29547 h 18.97321 c 4.15472,2.95465 6.85528,7.80182 6.85528,13.29547 0,1.77711 -0.27698,3.50824 -0.83094,5.10051 v 0.0235 c -0.99251,3.04661 -2.83906,5.67747 -5.26264,7.61703 -2.81598,2.28463 -6.37057,3.62361 -10.2483,3.62361 -2.40051,0 -4.6856,-0.50757 -6.73988,-1.47677 -4.91641,-2.19277 -8.51717,-6.74071 -9.39427,-12.23343 -0.16158,-0.85476 -0.23082,-1.75458 -0.23082,-2.6544" /><path
   inkscape:connector-curvature="0"
   id="path126"
   style="fill:#ffffff;fill-opacity:1;fill-rule:nonzero;stroke:none;stroke-width:0.1"
   d="m 782.54264,-406.26876 -0.32453,0.0459 c 0.84826,-0.11818 0.57705,3.83019 0.5445,4.21589 -0.70861,8.57833 -9.4536,15.54972 -17.8946,15.33598 -0.53734,-0.0138 -4.67313,0.0531 -4.65074,-0.82056 -0.3453,13.16307 -11.0684,23.7426 -24.31502,23.7426 -11.98013,0 -21.89259,-8.65636 -23.94294,-20.04674 -1.24341,0.27236 -2.52538,0.43555 -3.85096,0.43555 -9.93047,0 -17.98115,-8.05069 -17.98115,-17.98139 0,-0.62921 0.12233,-1.22518 0,-1.81953 -7.23152,0 -18.00378,-3.75425 -19.03322,-12.09346 -0.77324,-6.2366 4.37861,-11.90606 10.59914,-11.90606 h 98.74054 c 12.71136,0 14.68231,19.02171 2.10898,20.89179" /><path
   inkscape:connector-curvature="0"
   id="path128"
   style="fill:#ffffff;fill-opacity:1;fill-rule:nonzero;stroke:none;stroke-width:0.1"
   d="m 710.70251,-442.77049 h 86.51067 c 0.25321,3.5317 -1.66281,7.15535 -6.09428,7.80182 l -0.23082,0.0459 c 0.60059,0 0.41571,2.76981 0.39216,3.0466 -0.2532,2.81579 -1.70759,5.40169 -3.78494,7.34019 -0.53112,0.50761 -1.08462,0.96925 -1.6852,1.36145 -2.21516,1.52377 -4.84717,2.42359 -7.45564,2.35508 -0.36862,-0.0235 -3.34686,0.0231 -3.34686,-0.60049 -0.0683,3.13958 -0.99159,6.09312 -2.53899,8.60972 -1.52271,2.56139 -3.69308,4.70822 -6.30132,6.18615 -2.56162,1.47677 -5.5387,2.33056 -8.70183,2.33056 -8.63211,0 -15.78746,-6.25446 -17.26515,-14.44849 -0.89996,0.18373 -1.82323,0.29914 -2.76889,0.29914 -1.29304,0 -2.539,-0.18373 -3.71663,-0.52996 -3.99337,-1.20108 -7.17889,-4.27021 -8.54025,-8.19411 -0.46163,-1.33893 -0.716,-2.76982 -0.716,-4.2476 0,-0.43819 0.093,-0.87729 0,-1.31548 -5.21578,0 -12.9941,-2.70038 -13.73364,-8.70164 -0.0459,-0.46163 -0.0683,-0.90074 -0.0231,-1.33892" /><path
   inkscape:connector-curvature="0"
   id="path130"
   style="fill:#ffffff;fill-opacity:1;fill-rule:nonzero;stroke:none;stroke-width:0.1"
   d="m 639.33347,-442.77049 h 105.73732 c 1.15409,4.77774 -1.06107,10.34082 -7.22482,11.24064 l -0.25321,0.0459 c 0.73838,0 0.48402,3.39376 0.46163,3.73998 l -0.0695,0.57705 c -0.4157,3.11603 -2.00788,5.9778 -4.27013,8.19411 -3.04656,3.02302 -7.34023,4.9155 -11.51733,4.82363 -0.48518,-0.0235 -4.10879,0.0459 -4.10879,-0.73839 -0.32384,11.65629 -9.80975,21.05034 -21.55906,21.05034 -1.73113,0 -3.41563,-0.20727 -5.03136,-0.62298 -6.71679,-1.59333 -12.18717,-6.34748 -14.79541,-12.57956 -0.6232,-1.45438 -1.08484,-2.97824 -1.3849,-4.57042 -0.90019,0.18489 -1.84654,0.34623 -2.81598,0.36977 l -0.57704,0.0231 c -7.87088,0 -14.37994,-5.65504 -15.6956,-13.13311 v -0.0235 c -0.16157,-0.89982 -0.2539,-1.82309 -0.2539,-2.76982 0,-0.57704 0.11541,-1.08465 0,-1.61572 -6.39365,0 -15.9495,-3.3234 -16.84968,-10.70957 -0.13849,-1.13156 -0.0693,-2.26219 0.20773,-3.30087" /><path
   inkscape:connector-curvature="0"
   id="path132"
   style="fill:#266cbb;fill-opacity:1;fill-rule:nonzero;stroke:none;stroke-width:0.1"
   d="m 588.17736,-296.12467 0.0323,-0.57889 c 0,-0.57959 0,-1.15848 0.0323,-1.73829 0.0623,-1.2875 0.19158,-2.51014 0.35315,-3.73371 2.96139,-20.79066 20.82437,-36.78655 42.41967,-36.78655 23.65649,0 42.83744,19.18232 42.83744,42.83744 0,23.65603 -19.18095,42.83836 -42.83744,42.83836 -22.56243,0 -41.06707,-17.44473 -42.7105,-39.61961 -0.0946,-1.06199 -0.12695,-2.12422 -0.12695,-3.21875" /><path
   inkscape:connector-curvature="0"
   id="path134"
   style="fill:#e6554e;fill-opacity:1;fill-rule:nonzero;stroke:none;stroke-width:0.1"
   d="m 597.76784,-296.12906 c 0,-18.36177 14.88542,-33.24697 33.24697,-33.24697 18.36154,0 33.24696,14.8852 33.24696,33.24697 0,18.36154 -14.88542,33.24743 -33.24696,33.24743 -18.36155,0 -33.24697,-14.88589 -33.24697,-33.24743" /><path
   inkscape:connector-curvature="0"
   id="path136"
   style="fill:#ffffff;fill-opacity:0.94117647;fill-rule:nonzero;stroke:none;stroke-width:0.1"
   d="m 606.23423,-296.12906 c 0,-13.68587 11.0954,-24.78058 24.78058,-24.78058 13.68517,0 24.78057,11.09471 24.78057,24.78058 0,13.68564 -11.0954,24.78035 -24.78057,24.78035 -13.68518,0 -24.78058,-11.09471 -24.78058,-24.78035" /><path
   inkscape:connector-curvature="0"
   id="path138"
   style="fill:#266cbb;fill-opacity:1;fill-rule:nonzero;stroke:none;stroke-width:0.1"
   d="m 615.38384,-296.12906 c 0,-8.63142 6.99839,-15.62981 15.63097,-15.62981 8.63257,0 15.62866,6.99839 15.62866,15.62981 0,8.63212 -6.99609,15.62958 -15.62866,15.62958 -8.63258,0 -15.63097,-6.99746 -15.63097,-15.62958" /><path
   inkscape:connector-curvature="0"
   id="path140"
   style="fill:#e6554e;fill-opacity:1;fill-rule:nonzero;stroke:none;stroke-width:0.1"
   d="m 623.41398,-296.12906 c 0,-4.19719 3.40225,-7.5999 7.60083,-7.5999 4.19626,0 7.60082,3.40271 7.60082,7.5999 0,4.19696 -3.40456,7.60059 -7.60082,7.60059 -4.19858,0 -7.60083,-3.40363 -7.60083,-7.60059" /><path
   inkscape:connector-curvature="0"
   id="path142"
   style="fill:#2865b2;fill-opacity:1;fill-rule:nonzero;stroke:none;stroke-width:0.1"
   d="m 597.78169,-297.1472 c -0.009,0.33815 -0.0139,0.67722 -0.0139,1.01814 0,0.93943 0.0392,1.86708 0.11541,2.78689 l -9.57894,0.43625 1.3249,-2.05474 -1.41953,-1.7429 v 0 l 9.57201,-0.44364" /><path
   inkscape:connector-curvature="0"
   id="path144"
   style="fill:#b6534a;fill-opacity:1;fill-rule:nonzero;stroke:none;stroke-width:0.1"
   d="m 606.27347,-297.54028 c -0.0254,0.46718 -0.0392,0.93781 -0.0392,1.41122 0,0.8104 0.0392,1.61111 0.11541,2.40189 l -8.46639,0.385 c -0.0762,-0.91981 -0.11541,-1.84746 -0.11541,-2.78689 0,-0.34092 0.005,-0.67999 0.0139,-1.01814 l 8.49178,-0.39308" /><path
   inkscape:connector-curvature="0"
   id="path146"
   style="fill:#c09e2c;fill-opacity:1;fill-rule:nonzero;stroke:none;stroke-width:0.1"
   d="m 615.49232,-297.9666 c -0.0716,0.6022 -0.10848,1.21618 -0.10848,1.83754 0,0.6726 0.0439,1.33436 0.12695,1.98434 l -9.16115,0.41755 c -0.0762,-0.79078 -0.11541,-1.59149 -0.11541,-2.40189 0,-0.47341 0.0138,-0.94404 0.0392,-1.41122 l 9.21885,-0.42632" /><path
   inkscape:connector-curvature="0"
   id="path148"
   style="fill:#2865b2;fill-opacity:1;fill-rule:nonzero;stroke:none;stroke-width:0.1"
   d="m 622.25989,-301.43533 2.30356,1.28658 c -0.72938,1.16586 -1.14947,2.54454 -1.14947,4.01969 0,1.38398 0.36931,2.68141 1.0156,3.79857 l -2.16969,1.38744 -0.0323,-3.50727 -6.71679,0.3056 c -0.0831,-0.64998 -0.12695,-1.31174 -0.12695,-1.98434 0,-0.62136 0.0369,-1.23534 0.10848,-1.83754 l 6.76757,-0.31391 v -3.15482" /><path
   inkscape:connector-curvature="0"
   id="path150"
   style="fill:#b6534a;fill-opacity:1;fill-rule:nonzero;stroke:none;stroke-width:0.1"
   d="m 624.56345,-300.14875 6.45136,3.60583 -6.58523,4.21243 c -0.64629,-1.11716 -1.0156,-2.41459 -1.0156,-3.79857 0,-1.47515 0.42009,-2.85383 1.14947,-4.01969" /><path
   inkscape:connector-curvature="0"
   id="path152"
   style="fill:#ffffff;fill-opacity:1;fill-rule:nonzero;stroke:none;stroke-width:0.1"
   d="m 588.24199,-298.44185 2.12353,-1.70044 -1.77038,-2.03327 34.05022,2.83306 v -3.1225 l 8.36945,5.92208 -8.39946,4.40978 v -3.44427 l -34.37336,-2.86444" /><path
   inkscape:connector-curvature="0"
   id="path154"
   style="fill:#ffffff;fill-opacity:1;fill-rule:nonzero;stroke:none;stroke-width:0.1"
   d="m 525.40652,-363.59912 h 43.46295 v 67.47445 h -49.36034 v -61.72917 l 5.89739,-5.74528" /><path
   inkscape:connector-curvature="0"
   id="path156"
   style="fill:#e6554e;fill-opacity:1;fill-rule:nonzero;stroke:none;stroke-width:0.1"
   d="m 529.20577,-304.08788 h 29.96705 v -4.19442 h -29.96705 v 4.19442" /><path
   inkscape:connector-curvature="0"
   id="path158"
   style="fill:#365568;fill-opacity:1;fill-rule:nonzero;stroke:none;stroke-width:0.1"
   d="m 523.68923,-311.9366 h 41.00013 v -1.18571 h -41.00013 v 1.18571" /><path
   inkscape:connector-curvature="0"
   id="path160"
   style="fill:#365568;fill-opacity:1;fill-rule:nonzero;stroke:none;stroke-width:0.1"
   d="m 523.68923,-316.49617 h 41.00013 v -1.18548 h -41.00013 v 1.18548" /><path
   inkscape:connector-curvature="0"
   id="path162"
   style="fill:#365568;fill-opacity:1;fill-rule:nonzero;stroke:none;stroke-width:0.1"
   d="m 523.68923,-321.05575 h 41.00013 v -1.18455 h -41.00013 v 1.18455" /><path
   inkscape:connector-curvature="0"
   id="path164"
   style="fill:#365568;fill-opacity:1;fill-rule:nonzero;stroke:none;stroke-width:0.1"
   d="m 523.68923,-325.61439 h 41.00013 v -1.18548 h -41.00013 v 1.18548" /><path
   inkscape:connector-curvature="0"
   id="path166"
   style="fill:#365568;fill-opacity:1;fill-rule:nonzero;stroke:none;stroke-width:0.1"
   d="m 523.68923,-330.17396 h 41.00013 v -1.18456 h -41.00013 v 1.18456" /><path
   inkscape:connector-curvature="0"
   id="path168"
   style="fill:#365568;fill-opacity:1;fill-rule:nonzero;stroke:none;stroke-width:0.1"
   d="m 523.68923,-334.73261 h 41.00013 v -1.18548 h -41.00013 v 1.18548" /><path
   inkscape:connector-curvature="0"
   id="path170"
   style="fill:#365568;fill-opacity:1;fill-rule:nonzero;stroke:none;stroke-width:0.1"
   d="m 525.40652,-343.24655 h 17.94837 v -1.18571 h -17.94837 v 1.18571" /><path
   inkscape:connector-curvature="0"
   id="path172"
   style="fill:#365568;fill-opacity:1;fill-rule:nonzero;stroke:none;stroke-width:0.1"
   d="m 525.40652,-347.19492 h 17.94837 v -1.18478 h -17.94837 v 1.18478" /><path
   inkscape:connector-curvature="0"
   id="path174"
   style="fill:#365568;fill-opacity:1;fill-rule:nonzero;stroke:none;stroke-width:0.1"
   d="m 525.40652,-351.14213 h 17.94837 v -1.18571 h -17.94837 v 1.18571" /><path
   inkscape:connector-curvature="0"
   id="path176"
   style="fill:#266cbb;fill-opacity:1;fill-rule:nonzero;stroke:none;stroke-width:0.1"
   d="m 548.12589,-354.84791 h 14.37532 v 14.12143 h -14.37532 v -14.12143" /><path
   inkscape:connector-curvature="0"
   id="path178"
   style="fill:#dddce2;fill-opacity:1;fill-rule:nonzero;stroke:none;stroke-width:0.1"
   d="m 519.50913,-357.85384 5.89739,-5.74528 v 5.74528 z" /><path
   inkscape:connector-curvature="0"
   id="path180"
   style="fill:#e6554e;fill-opacity:1;fill-rule:nonzero;stroke:none;stroke-width:0.1"
   d="m 869.53641,-325.3321 3.3037,0.0208 -0.0506,8.12547 -3.30346,-0.0208 0.0503,-8.1264" /><path
   inkscape:connector-curvature="0"
   id="path182"
   style="fill:#ffffff;fill-opacity:0.94117647;fill-rule:nonzero;stroke:none;stroke-width:0.1"
   d="m 868.61591,-322.15559 0.1415,-23.00259 5.15738,0.0316 -0.14149,23.00328 -5.15739,-0.0323" /><path
   inkscape:connector-curvature="0"
   id="path184"
   style="fill:#266cbb;fill-opacity:1;fill-rule:nonzero;stroke:none;stroke-width:0.1"
   d="m 856.03105,-303.56393 c 0.0512,-8.2995 6.82089,-14.98606 15.1204,-14.93482 8.2995,0.0515 14.98491,6.82089 14.93366,15.1204 -0.0515,8.29859 -6.81996,14.98514 -15.11947,14.93367 -8.29951,-0.0503 -14.98607,-6.81974 -14.93459,-15.11925" /><path
   inkscape:connector-curvature="0"
   id="path186"
   style="fill:#ffffff;fill-opacity:1;fill-rule:nonzero;stroke:none;stroke-width:0.1"
   d="m 859.78806,-303.54154 c 0.0379,-6.22399 5.11492,-11.23874 11.33984,-11.19996 6.22492,0.0388 11.23874,5.11584 11.20089,11.33984 -0.0388,6.224 -5.11584,11.23874 -11.33984,11.20089 -6.22469,-0.0388 -11.23966,-5.11585 -11.20089,-11.34077" /><path
   inkscape:connector-curvature="0"
   id="path188"
   style="fill:#e6554e;fill-opacity:1;fill-rule:nonzero;stroke:none;stroke-width:0.1"
   d="m 868.68008,-332.60655 0.0139,-2.10067 5.15739,0.0316 -0.0139,2.10067 -5.15716,-0.0316" /><path
   inkscape:connector-curvature="0"
   id="path190"
   style="fill:#e2e3e7;fill-opacity:1;fill-rule:nonzero;stroke:none;stroke-width:0.1"
   d="m 874.3088,-294.47825 c 0.0651,-0.66822 -3.07818,0.31114 -6.24546,-1.17486 -3.16844,-1.4867 -4.47209,-4.47117 -4.93835,-3.98784 -0.46509,0.4831 0.67722,4.31052 3.85189,5.79837 3.82995,1.79415 7.26614,0.0323 7.33192,-0.63567" /><path
   inkscape:connector-curvature="0"
   id="path192"
   style="fill:#e6554e;fill-opacity:1;fill-rule:nonzero;stroke:none;stroke-width:0.1"
   d="m 564.6132,-254.33861 h -5.81661 v 18.03078 c 1.89271,-0.38039 3.82927,-0.73377 5.81661,-1.05299 v -16.97779" /><path
   inkscape:connector-curvature="0"
   id="path194"
   style="fill:#266cbb;fill-opacity:1;fill-rule:nonzero;stroke:none;stroke-width:0.1"
   d="m 556.73308,-254.33861 h -5.8166 v 19.83601 c 1.88347,-0.48795 3.82465,-0.94589 5.8166,-1.37498 v -18.46103" /><path
   inkscape:connector-curvature="0"
   id="path196"
   style="fill:#ffffff;fill-opacity:1;fill-rule:nonzero;stroke:none;stroke-width:0.1"
   d="m 548.85297,-254.33861 h -5.8143 v 22.11787 c 1.87424,-0.6022 3.81311,-1.18202 5.8143,-1.73183 v -20.38604" /><path
   inkscape:connector-curvature="0"
   id="path198"
   style="fill:#e6554e;fill-opacity:1;fill-rule:nonzero;stroke:none;stroke-width:0.1"
   d="m 540.97516,-254.33861 h -5.8166 v 24.91399 c 1.8627,-0.72592 3.79926,-1.4336 5.8166,-2.11613 v -22.79786" /><path
   inkscape:connector-curvature="0"
   id="path200"
   style="fill:#266cbb;fill-opacity:1;fill-rule:nonzero;stroke:none;stroke-width:0.1"
   d="m 533.09505,-254.33861 h -5.8166 v 28.27793 c 1.8373,-0.85749 3.78079,-1.7069 5.8166,-2.53899 v -25.73894" /><path
   inkscape:connector-curvature="0"
   id="path202"
   style="fill:#ffffff;fill-opacity:1;fill-rule:nonzero;stroke:none;stroke-width:0.1"
   d="m 525.21494,-254.33861 h -5.8143 v 32.29554 c 1.79807,-1.00082 3.73694,-2.01688 5.8143,-3.0304 v -29.26514" /><path
   inkscape:connector-curvature="0"
   id="path204"
   style="fill:#e6554e;fill-opacity:1;fill-rule:nonzero;stroke:none;stroke-width:0.1"
   d="m 517.33482,-220.86821 v -33.4704 h -5.81429 v 37.09493 c 0.90711,-0.60405 1.84885,-1.21525 2.83675,-1.83107 0.93942,-0.58628 1.93425,-1.18571 2.97754,-1.79346" /><path
   inkscape:connector-curvature="0"
   id="path206"
   style="fill:#266cbb;fill-opacity:1;fill-rule:nonzero;stroke:none;stroke-width:0.1"
   d="m 509.45702,-254.33861 h -5.8166 v 42.87737 c 1.65496,-1.34105 3.59383,-2.81966 5.8166,-4.37399 v -38.50338" /><path
   inkscape:connector-curvature="0"
   id="path208"
   style="fill:#ffffff;fill-opacity:0.94117647;fill-rule:nonzero;stroke:none;stroke-width:0.1"
   d="m 497.00903,-207.14033 0.93019,13.6067 12.85885,-1.67343 -4.78485,-4.13856 c 8.39022,-7.53619 30.30866,-23.7389 67.29487,-27.96194 l -0.63936,-5.59202 c -26.3963,3.01425 -45.28872,11.9799 -56.4903,18.96952 -6.65447,4.15379 -11.43932,8.08923 -14.46073,10.86366 l -4.70867,-4.07393" /><path
   inkscape:connector-curvature="0"
   id="path210"
   style="fill:#baa4d9;fill-opacity:1;fill-rule:nonzero;stroke:none;stroke-width:0.1"
   d="m 84.20095,-427.78357 c 6.359025,3.87792 10.606069,10.88081 10.606069,18.8738 0,8.76922 -5.107994,16.34488 -12.512623,19.91263 -1.654962,-8.7503 -9.341188,-15.36922 -18.571585,-15.36922 -4.30244,0 -8.267886,1.43707 -11.443937,3.85719 -0.08309,-0.20289 -0.16388,-0.4067 -0.242358,-0.61305 0.0023,-0.002 0.0023,-0.005 0.0046,-0.009 0.854025,-1.823 1.454151,-3.78495 1.823459,-5.81638 1.246415,0.27676 2.515912,0.43925 3.854654,0.43925 9.925158,0 17.980692,-8.05623 17.980692,-17.98134 0,-0.62302 -0.115409,-1.22352 0,-1.82309 2.580541,0 5.620409,-0.48238 8.501013,-1.47056" /><path
   inkscape:connector-curvature="0"
   id="path212"
   style="fill:#ffffff;fill-opacity:1;fill-rule:nonzero;stroke:none;stroke-width:0.1"
   d="m 72.715465,-431.00149 c 4.207805,0 8.138629,1.17482 11.485485,3.21792 -2.880604,0.98818 -5.920472,1.47056 -8.501013,1.47056 -0.115409,0.59957 0,1.20007 0,1.82309 0,9.92511 -8.055534,17.98134 -17.980692,17.98134 -1.338742,0 -2.608239,-0.16249 -3.854654,-0.43925 -0.369308,2.03143 -0.969434,3.99338 -1.823459,5.81638 -0.0023,0.005 -0.0023,0.007 -0.0046,0.009 -0.91173,-2.42197 -1.410296,-5.0466 -1.410296,-7.78755 0,-12.20084 9.890535,-22.09172 22.089245,-22.09172" /><path
   inkscape:connector-curvature="0"
   id="path214"
   style="fill:#baa4d9;fill-opacity:1;fill-rule:nonzero;stroke:none;stroke-width:0.1"
   d="m 52.278874,-400.50917 c 3.305308,8.0343 11.210812,13.69026 20.436591,13.69026 3.432258,0 6.679862,-0.78248 9.578931,-2.17823 0.214661,1.14416 0.327761,2.32526 0.327761,3.53174 0,10.43896 -8.461773,18.90073 -18.899346,18.90073 -10.43988,0 -18.901654,-8.46177 -18.901654,-18.90073 0,-2.89445 0.650906,-5.63887 1.814227,-8.09131 0.0023,-9.2e-4 0.0023,-0.002 0.0046,-0.005 1.892704,-1.77706 3.485346,-3.87796 4.731761,-6.20853 0.0023,-0.002 0.0023,-0.005 0.0046,-0.007 0.293139,-0.25344 0.593202,-0.49788 0.902497,-0.73308" /><path
   inkscape:connector-curvature="0"
   id="path216"
   style="fill:#ffffff;fill-opacity:1;fill-rule:nonzero;stroke:none;stroke-width:0.1"
   d="m 51.376377,-399.77609 c -0.0023,0.002 -0.0023,0.005 -0.0046,0.007 -1.246415,2.33057 -2.839057,4.43147 -4.731761,6.20854 -0.0023,9.2e-4 -0.0023,0.002 -0.0046,0.005 1.135622,-2.39288 2.75827,-4.5081 4.740993,-6.21938" /><path
   inkscape:connector-curvature="0"
   id="path218"
   style="fill:#d9cfe4;fill-opacity:1;fill-rule:nonzero;stroke:none;stroke-width:0.1"
   d="m 63.722811,-404.36636 c 9.230397,0 16.916623,6.61892 18.571585,15.36922 -2.899069,1.39575 -6.146673,2.17823 -9.578931,2.17823 -9.225779,0 -17.131283,-5.65596 -20.436591,-13.69026 3.176051,-2.42012 7.141497,-3.85719 11.443937,-3.85719" /><path
   inkscape:connector-curvature="0"
   id="path220"
   style="fill:#c7b7dc;fill-opacity:1;fill-rule:nonzero;stroke:none;stroke-width:0.1"
   d="m 720.34261,-305.26367 h 32.36501 c -0.29937,0.73585 -0.62113,1.47147 -0.94312,2.2297 -1.20002,2.86283 -2.88522,4.57042 -5.00851,6.76319 -0.76193,0.78547 -1.56979,1.59333 -2.37765,2.51568 -2.539,2.8626 -4.73177,6.00218 -6.50883,9.34904 -0.83141,1.59218 -1.59218,3.2079 -2.2387,4.84717 l -0.0235,0.0224 c -0.002,0.007 -0.005,0.0127 -0.007,0.0189 -3.92759,-1.30827 -6.77126,-4.97342 -6.88575,-9.31834 0.009,0.36239 -1.7032,0.33446 -1.92594,0.34 -0.0522,9.2e-4 -0.10456,0.002 -0.15696,0.002 -3.44587,0 -6.964,-2.85383 -7.25344,-6.35303 -0.0138,-0.15672 -0.1228,-1.74729 0.21097,-1.74729 0.005,0 0.009,9.3e-4 0.0139,0.002 l -0.13434,-0.0208 c -5.20678,-0.77371 -4.39084,-8.65128 0.87364,-8.65128" /><path
   inkscape:connector-curvature="0"
   id="path222"
   style="fill:#f6daa7;fill-opacity:1;fill-rule:nonzero;stroke:none;stroke-width:0.1"
   d="m 752.70762,-305.26367 h 8.52594 c 2.57685,0 4.70914,2.34696 4.38992,4.93027 -0.42632,3.45418 -4.88779,5.00851 -7.88196,5.00851 -0.0506,0.24605 0,0.49233 0,0.75385 0,4.11225 -3.33439,7.44641 -7.44756,7.44641 -0.54819,0 -1.0793,-0.0686 -1.59403,-0.18027 -0.84941,4.71652 -4.9545,8.30135 -9.91523,8.30135 -1.11346,0 -2.18469,-0.18027 -3.18459,-0.51403 0.002,-0.006 0.005,-0.0118 0.007,-0.0189 l 0.0235,-0.0224 c 0.64652,-1.63927 1.40729,-3.25499 2.2387,-4.84717 1.77706,-3.34686 3.96983,-6.48644 6.50882,-9.34904 0.80787,-0.92235 1.61573,-1.73021 2.37766,-2.51568 2.12329,-2.19277 3.80849,-3.90036 5.00851,-6.76319 0.32199,-0.75823 0.64375,-1.49385 0.94312,-2.2297" /><path
   inkscape:connector-curvature="0"
   id="path224"
   style="fill:#ffffff;fill-opacity:1;fill-rule:nonzero;stroke:none;stroke-width:0.1"
   d="m 692.92932,-248.11738 0.27929,0.21835 c 0.37185,1.49201 0.75316,2.98263 1.1437,4.47025 l -0.20658,0.35246 -0.35338,-0.20636 c -0.38985,-1.48946 -0.7707,-2.9817 -1.14232,-4.4767 l 0.21005,-0.349 z m -1.61111,-6.7341 0.27929,0.22435 c 0.34623,1.49754 0.69938,2.9944 1.06176,4.48917 l -0.21235,0.34807 -0.34853,-0.21281 c -0.36239,-1.49662 -0.71554,-2.99601 -1.06176,-4.4954 l 0.21697,-0.34531 z m -1.468,-6.76688 0.28391,0.23797 c 0.14311,0.80163 0.3093,1.57787 0.46856,2.31002 0.15926,0.73215 0.32084,1.46338 0.48472,2.19369 l -0.21928,0.34438 -0.34392,-0.21812 c -0.16388,-0.73308 -0.32545,-1.46431 -0.48472,-2.19646 -0.16157,-0.73839 -0.32776,-1.52178 -0.47317,-2.33149 l 0.23312,-0.33538 z m -0.24697,-6.88206 0.0508,0.003 0.23312,0.3363 c -0.13618,0.73862 -0.20542,1.5481 -0.20542,2.40743 0,0.65644 0.0415,1.36598 0.12002,2.1099 l -0.25621,0.3183 -0.31852,-0.25805 c -0.0808,-0.76355 -0.12234,-1.49386 -0.12234,-2.17015 0,-0.8935 0.0739,-1.73921 0.21466,-2.51107 z m 3.67,-1.04676 0.18096,0.0649 c 0.60774,0.49141 1.2695,0.91681 1.96657,1.26488 0.59851,0.29937 1.29281,0.46256 2.00788,0.47248 l 0.2839,0.29314 -0.28852,0.28391 h -0.005 c -0.80071,-0.0108 -1.58064,-0.19481 -2.25671,-0.53273 -0.734,-0.36608 -1.43107,-0.81525 -2.07205,-1.33366 l -0.0415,-0.40578 z m 7.77624,-2.66271 0.27514,0.20127 0.15142,0.57866 c 0.0605,0.28852 0.0912,0.57451 0.0912,0.84941 0,1.24341 -0.63221,2.26317 -1.77984,2.8716 l -0.38962,-0.11887 0.11911,-0.39054 c 0.95027,-0.50295 1.4733,-1.34336 1.4733,-2.36219 0,-0.23543 -0.0272,-0.48056 -0.0785,-0.73031 l -0.13711,-0.52395 0.18835,-0.36146 z m -4.0393,-2.89238 c 1.19932,0 2.24331,0.358 3.01955,1.03522 l 0.0282,0.40647 -0.4067,0.0279 c -0.97382,-0.84756 -2.49929,-1.09985 -4.11871,-0.70861 l -0.34807,-0.21282 0.21281,-0.34899 c 0.54819,-0.12972 1.092,-0.19735 1.61296,-0.1992 z m -7.70239,-0.0307 0.26544,0.17958 c 0.41547,1.0089 0.89788,1.93125 1.44261,2.75435 0.55627,-0.69592 1.29951,-1.32167 2.16969,-1.81862 l 0.39308,0.10641 -0.10733,0.39401 c -0.8651,0.4951 -1.59218,1.12177 -2.10921,1.81676 0.15926,0.21928 0.32545,0.43279 0.49626,0.6366 l -0.0369,0.4067 -0.40855,-0.0369 -0.3947,-0.50042 c -0.17773,0.28483 -0.33699,0.58605 -0.4801,0.89789 l -0.38085,0.14426 -0.14311,-0.38039 c 0.18466,-0.41016 0.39932,-0.80163 0.64168,-1.16678 -0.61398,-0.90158 -1.1564,-1.91764 -1.61573,-3.03479 l 0.15696,-0.37693 z m -1.65958,-6.70179 0.28622,0.25437 0.0439,0.33907 c 0.20081,1.48669 0.48703,2.87968 0.85172,4.13833 l -0.19619,0.35799 -0.35777,-0.19735 c -0.37162,-1.28588 -0.66476,-2.70587 -0.87018,-4.22073 l -0.0462,-0.34968 0.2539,-0.32015 z m -0.46394,-6.90467 0.28852,0.2876 c 0.002,1.49315 0.0739,3.03594 0.21235,4.58496 l -0.26313,0.31368 -0.3116,-0.26244 c -0.13849,-1.56518 -0.21235,-3.12504 -0.21466,-4.63343 l 0.28621,-0.29037 z m 0.51472,-6.89753 0.0462,0.005 0.24005,0.33099 c -0.23544,1.44169 -0.39008,2.97432 -0.46395,4.55773 l -0.30237,0.27582 -0.27467,-0.30306 c 0.0762,-1.60487 0.23313,-3.1592 0.47087,-4.62258 z m 1.87193,-6.65031 0.11311,0.0233 0.15003,0.37877 c -0.31622,0.73931 -0.60244,1.51209 -0.84941,2.29456 -0.20543,0.6546 -0.39239,1.34174 -0.55858,2.04504 l -0.34623,0.21374 -0.21466,-0.34715 c 0.1685,-0.716 0.36008,-1.41653 0.57012,-2.08382 0.25159,-0.8014 0.54242,-1.59218 0.87018,-2.34949 z m 5.64973,-2.46514 0.16572,0.0533 0.0912,0.0639 c 1.01421,0.71669 2.52283,1.09107 4.1194,1.00613 l 0.30214,0.27606 -0.2749,0.30099 c -1.72306,0.0875 -3.3614,-0.32176 -4.47948,-1.11162 l -0.0891,-0.0649 -0.0704,-0.40139 z m 9.93947,-2.21792 0.063,0.007 0.21928,0.34438 c -0.31484,1.40476 -1.58157,2.55538 -3.47681,3.15851 l -0.36238,-0.18765 0.1865,-0.36239 c 1.69512,-0.53919 2.82036,-1.5354 3.08811,-2.73472 z m -14.22968,-3.14235 0.2539,0.15164 c 0.50549,0.93943 0.99482,1.74014 1.49339,2.43975 l 0.4224,-0.46072 0.409,-0.009 0.009,0.40763 -0.4898,0.53642 c 0.22851,0.30029 0.46095,0.57958 0.69892,0.84202 l -0.0208,0.40855 -0.409,-0.0208 c -0.22159,-0.24628 -0.43856,-0.5041 -0.65091,-0.77901 -0.65783,0.80879 -1.26257,1.70228 -1.8073,2.66872 l -0.39239,0.11102 -0.10849,-0.39216 c 0.58166,-1.04145 1.23719,-1.9998 1.95041,-2.86191 -0.54011,-0.74554 -1.06637,-1.60395 -1.61341,-2.61747 l 0.11771,-0.39031 z m 8.20326,-1.55248 0.2786,0.21374 -0.20382,0.3543 c -1.30458,0.349 -2.76358,1.08184 -4.00676,2.00788 l -0.40393,-0.0586 0.0584,-0.40301 c 1.29835,-0.96921 2.83028,-1.73552 4.20342,-2.10529 z m 2.28463,-0.24167 0.0261,0.002 c 1.37152,0.12349 2.44182,0.77093 3.18275,1.92225 0.20127,0.31183 0.37346,0.62667 0.50872,0.93319 l -0.14795,0.37947 -0.38039,-0.1468 c -0.1228,-0.2786 -0.27883,-0.5655 -0.46533,-0.85218 -0.64029,-0.99621 -1.56517,-1.55525 -2.74996,-1.6635 l -0.26152,-0.31368 z m -13.30617,-4.52795 0.26775,0.18212 c 0.49856,1.2785 1.09869,2.78158 1.7796,4.2422 l -0.1408,0.38315 -0.38316,-0.13964 c -0.68552,-1.47423 -1.29027,-2.98909 -1.79345,-4.27382 l 0.16388,-0.37416 z m -2.59439,-6.41788 0.26313,0.17404 0.1708,0.385 c 0.54243,1.22172 1.02945,2.44159 1.59495,3.89505 l -0.16388,0.37231 -0.37392,-0.16504 c -0.5632,-1.44422 -1.04791,-2.65509 -1.58341,-3.86781 l -0.17311,-0.38962 0.15003,-0.38131 z m -3.05603,-6.21407 0.25159,0.14888 c 0.70169,1.27295 1.38953,2.62555 2.10044,4.13117 l -0.13849,0.38593 -0.38546,-0.13803 c -0.704,-1.49662 -1.38491,-2.83721 -2.07967,-4.09955 l 0.1131,-0.39216 z m -3.76232,-5.8046 0.2285,0.11264 c 0.90712,1.17486 1.76576,2.42981 2.62209,3.83203 l -0.0969,0.39654 -0.3947,-0.0946 c -0.84479,-1.38583 -1.69189,-2.6237 -2.58977,-3.78218 l 0.0531,-0.40324 z m -4.78716,-4.98151 0.18465,0.0658 c 1.17025,0.96644 2.29433,2.05751 3.34455,3.23861 l -0.0254,0.40854 -0.40624,-0.0254 c -1.02945,-1.16032 -2.13275,-2.22877 -3.27992,-3.17535 l -0.0392,-0.40855 z m -4.12471,-2.83559 0.1431,0.036 c 0.7894,0.44641 1.56726,0.93597 2.3128,1.45439 l 0.0716,0.40116 -0.40162,0.072 c -0.72939,-0.50757 -1.49108,-0.98721 -2.26663,-1.42276 l -0.11079,-0.394 0.25159,-0.1468" /><path
   inkscape:connector-curvature="0"
   id="path226"
   style="fill:#e6554e;fill-opacity:1;fill-rule:nonzero;stroke:none;stroke-width:0.1"
   d="m 693.8032,-204.14201 16.24194,-43.06295 -16.24194,5.56778 -16.24172,-5.56778 16.24172,43.06295" /><path
   inkscape:connector-curvature="0"
   id="path228"
   style="fill:#266cbb;fill-opacity:1;fill-rule:nonzero;stroke:none;stroke-width:0.1"
   d="m 693.8032,-204.14201 2.51729,-38.35819 -2.51729,-1.74729 -2.15722,1.87008 2.15722,38.2354" /><path
   inkscape:connector-curvature="0"
   id="path230"
   style="fill:#365568;fill-opacity:1;fill-rule:nonzero;stroke:none;stroke-width:0.1"
   d="m 691.64598,-242.37741 0.397,7.06048 -14.4815,-11.88803 z" /><path
   inkscape:connector-curvature="0"
   id="path232"
   style="fill:#365568;fill-opacity:1;fill-rule:nonzero;stroke:none;stroke-width:0.1"
   d="m 696.32049,-242.5002 -0.4644,7.07248 14.18813,-11.77724 z" /><path
   inkscape:connector-curvature="0"
   id="path234"
   style="fill:#ffffff;fill-opacity:1;fill-rule:nonzero;stroke:none;stroke-width:0.1"
   d="m 647.49287,-240.64374 h 4.61636 l 0.28852,0.28852 -0.28852,0.28853 h -4.61636 l -0.28852,-0.28853 z m -6.92452,0 h 4.61635 l 0.28852,0.28852 -0.28852,0.28853 h -4.61635 l -0.28853,-0.28853 z m -6.92453,0 h 4.61635 l 0.28852,0.28852 -0.28852,0.28853 h -4.61635 l -0.28852,-0.28853 z m -6.92453,0 h 4.61635 l 0.28852,0.28852 -0.28852,0.28853 h -4.61635 l -0.28852,-0.28853 z m -6.92453,0 h 4.61635 l 0.28853,0.28852 -0.28853,0.28853 h -4.61635 l -0.28852,-0.28853 0.28852,-0.28852" /><path
   inkscape:connector-curvature="0"
   id="path236"
   style="fill:#ffffff;fill-opacity:1;fill-rule:nonzero;stroke:none;stroke-width:0.1"
   d="m 560.93627,-278.72864 h 4.61635 l 0.28852,0.28852 -0.28852,0.28852 h -4.61635 l -0.28852,-0.28852 z m -6.92453,0 h 4.61635 l 0.28853,0.28852 -0.28853,0.28852 h -4.61635 l -0.28852,-0.28852 z m -5.80968,0 h 3.50151 l 0.28852,0.28852 -0.28852,0.28852 h -3.50151 l -0.28852,-0.28852 0.28852,-0.28852" /><path
   inkscape:connector-curvature="0"
   id="path238"
   style="fill:#ffffff;fill-opacity:1;fill-rule:nonzero;stroke:none;stroke-width:0.1"
   d="m 545.6446,-285.94169 h 4.61636 l 0.28852,0.28852 -0.28852,0.28852 h -4.61636 l -0.28852,-0.28852 z m -6.92452,0 h 4.61635 l 0.28852,0.28852 -0.28852,0.28852 h -4.61635 l -0.28853,-0.28852 z m -6.92453,0 h 4.61635 l 0.28852,0.28852 -0.28852,0.28852 h -4.61635 l -0.28852,-0.28852 z m -6.92453,0 h 4.61635 l 0.28852,0.28852 -0.28852,0.28852 h -4.61635 l -0.28852,-0.28852 0.28852,-0.28852" /><path
   inkscape:connector-curvature="0"
   id="path240"
   style="fill:#ffffff;fill-opacity:1;fill-rule:nonzero;stroke:none;stroke-width:0.1"
   d="m 613.15875,-360.38037 h 4.61636 l 0.28852,0.28852 -0.28852,0.28852 h -4.61636 l -0.28852,-0.28852 z m -6.92452,0 h 4.61635 l 0.28852,0.28852 -0.28852,0.28852 h -4.61635 l -0.28853,-0.28852 z m -4.05085,0 h 1.74267 l 0.28852,0.28852 -0.28852,0.28852 h -1.74267 l -0.28852,-0.28852 0.28852,-0.28852" /><path
   inkscape:connector-curvature="0"
   id="path242"
   style="fill:#ffffff;fill-opacity:1;fill-rule:nonzero;stroke:none;stroke-width:0.1"
   d="m 901.39206,-232.56512 h 4.61635 l 0.28852,0.28852 -0.28852,0.28852 h -4.61635 l -0.28857,-0.28852 z m -6.92457,0 h 4.61635 l 0.28852,0.28852 -0.28852,0.28852 h -4.61635 l -0.28853,-0.28852 z m -6.02734,0 h 3.71916 l 0.28852,0.28852 -0.28852,0.28852 h -3.71916 l -0.28853,-0.28852 0.28853,-0.28852" /><path
   inkscape:connector-curvature="0"
   id="path244"
   style="fill:#ffffff;fill-opacity:1;fill-rule:nonzero;stroke:none;stroke-width:0.1"
   d="m 762.90145,-197.54524 h 4.61635 l 0.28852,0.28852 -0.28852,0.28852 h -4.61635 l -0.28852,-0.28852 z m -6.02734,0 h 3.71916 l 0.28852,0.28852 -0.28852,0.28852 h -3.71916 l -0.28852,-0.28852 0.28852,-0.28852" /><path
   inkscape:connector-curvature="0"
   id="path246"
   style="fill:#ffffff;fill-opacity:1;fill-rule:nonzero;stroke:none;stroke-width:0.1"
   d="m 755.6884,-201.40451 h 4.61635 l 0.28852,0.28852 -0.28852,0.28852 h -4.61635 l -0.28852,-0.28852 z m -6.92453,0 h 4.61635 l 0.28852,0.28852 -0.28852,0.28852 h -4.61635 l -0.28852,-0.28852 z m -6.92453,0 h 4.61635 l 0.28853,0.28852 -0.28853,0.28852 h -4.61635 l -0.28852,-0.28852 z m -6.92453,0 h 4.61636 l 0.28852,0.28852 -0.28852,0.28852 h -4.61636 l -0.28852,-0.28852 0.28852,-0.28852" /><path
   inkscape:connector-curvature="0"
   id="path248"
   style="fill:#ffffff;fill-opacity:1;fill-rule:nonzero;stroke:none;stroke-width:0.1"
   d="m 488.80577,-367.59342 h 4.61635 l 0.28852,0.28852 -0.28852,0.28852 h -4.61635 l -0.28852,-0.28852 z m -6.92453,0 h 4.61635 l 0.28852,0.28852 -0.28852,0.28852 h -4.61635 l -0.28852,-0.28852 z m -6.92453,0 h 4.61635 l 0.28853,0.28852 -0.28853,0.28852 h -4.61635 l -0.28852,-0.28852 0.28852,-0.28852" /><path
   inkscape:connector-curvature="0"
   id="path250"
   style="fill:#ffffff;fill-opacity:1;fill-rule:nonzero;stroke:none;stroke-width:0.1"
   d="m 469.76331,-249.58792 h 4.61636 l 0.28852,0.28852 -0.28852,0.28852 h -4.61636 l -0.28852,-0.28852 z m -6.92452,0 h 4.61635 l 0.28852,0.28852 -0.28852,0.28852 h -4.61635 l -0.28853,-0.28852 z m -6.92453,0 h 4.61635 l 0.28852,0.28852 -0.28852,0.28852 h -4.61635 l -0.28852,-0.28852 0.28852,-0.28852" /><path
   inkscape:connector-curvature="0"
   id="path252"
   style="fill:#ffffff;fill-opacity:1;fill-rule:nonzero;stroke:none;stroke-width:0.1"
   d="m 455.91426,-259.39767 h 4.61635 l 0.28852,0.28852 -0.28852,0.28853 h -4.61635 l -0.28852,-0.28853 z m -6.92453,0 h 4.61635 l 0.28852,0.28852 -0.28852,0.28853 h -4.61635 l -0.28852,-0.28853 z m -6.92453,0 h 4.61635 l 0.28853,0.28852 -0.28853,0.28853 h -4.61635 l -0.28852,-0.28853 z m -6.92453,0 h 4.61636 l 0.28852,0.28852 -0.28852,0.28853 h -4.61636 l -0.28852,-0.28853 0.28852,-0.28852" /><path
   inkscape:connector-curvature="0"
   id="path254"
   style="fill:#ffffff;fill-opacity:1;fill-rule:nonzero;stroke:none;stroke-width:0.1"
   d="m 145.56151,-408.65818 h 4.61635 l 0.28852,0.28852 -0.28852,0.28852 h -4.61635 l -0.28852,-0.28852 z m -6.92453,0 h 4.61635 l 0.28853,0.28852 -0.28853,0.28852 h -4.61635 l -0.28852,-0.28852 z m -6.92453,0 h 4.61635 l 0.28853,0.28852 -0.28853,0.28852 h -4.61635 l -0.28852,-0.28852 z m -6.92453,0 h 4.61636 l 0.28852,0.28852 -0.28852,0.28852 h -4.61636 l -0.28852,-0.28852 z m -6.92452,0 h 4.61635 l 0.28852,0.28852 -0.28852,0.28852 h -4.61635 l -0.28853,-0.28852 z m -6.92453,0 h 4.61635 l 0.28852,0.28852 -0.28852,0.28852 h -4.61635 l -0.28853,-0.28852 z m -6.92453,0 h 4.61635 l 0.28852,0.28852 -0.28852,0.28852 h -4.61635 l -0.28853,-0.28852 z m -4.223973,0 h 1.915793 l 0.28852,0.28852 -0.28852,0.28852 h -1.915793 l -0.28852,-0.28852 0.28852,-0.28852" /><path
   inkscape:connector-curvature="0"
   id="path256"
   style="fill:#ffffff;fill-opacity:1;fill-rule:nonzero;stroke:none;stroke-width:0.1"
   d="m 45.539,-325.56384 h 4.616352 l 0.288522,0.28852 -0.288522,0.28852 H 45.539 l -0.288522,-0.28852 z m -6.153597,0 h 3.845421 l 0.288522,0.28852 -0.288522,0.28852 h -3.845421 l -0.288522,-0.28852 0.288522,-0.28852" /><path
   inkscape:connector-curvature="0"
   id="path258"
   style="fill:#ffffff;fill-opacity:1;fill-rule:nonzero;stroke:none;stroke-width:0.1"
   d="m 103.89265,-159.04475 h 4.61635 l 0.28852,0.28852 -0.28852,0.28852 h -4.61635 l -0.28853,-0.28852 z m -6.924537,0 h 4.616357 l 0.28852,0.28852 -0.28852,0.28852 h -4.616357 l -0.288522,-0.28852 z m -6.924528,0 h 4.616352 l 0.288522,0.28852 -0.288522,0.28852 h -4.616352 l -0.288522,-0.28852 z m -6.924528,0 h 4.616352 l 0.288522,0.28852 -0.288522,0.28852 h -4.616352 l -0.288522,-0.28852 z m -6.924529,0 h 4.616353 l 0.288522,0.28852 -0.288522,0.28852 h -4.616353 l -0.288522,-0.28852 z m -6.924528,0 h 4.616352 l 0.288522,0.28852 -0.288522,0.28852 H 69.27 l -0.288522,-0.28852 z m -6.924528,0 h 4.616352 l 0.288522,0.28852 -0.288522,0.28852 h -4.616352 l -0.288522,-0.28852 0.288522,-0.28852" /><path
   inkscape:connector-curvature="0"
   id="path260"
   style="fill:#ffffff;fill-opacity:1;fill-rule:nonzero;stroke:none;stroke-width:0.1"
   d="m 472.61622,-151.36325 h 4.61635 l 0.28852,0.28852 -0.28852,0.28852 h -4.61635 l -0.28852,-0.28852 z m -5.54655,0 h 3.23837 l 0.28853,0.28852 -0.28853,0.28852 h -3.23837 l -0.28852,-0.28852 0.28852,-0.28852" /><path
   inkscape:connector-curvature="0"
   id="path262"
   style="fill:#ffffff;fill-opacity:1;fill-rule:nonzero;stroke:none;stroke-width:0.1"
   d="m 259.68698,-134.9175 h 4.61635 l 0.28852,0.28852 -0.28852,0.28852 h -4.61635 l -0.28853,-0.28852 z m -6.92453,0 h 4.61635 l 0.28852,0.28852 -0.28852,0.28852 h -4.61635 l -0.28853,-0.28852 z m -6.92453,0 h 4.61635 l 0.28852,0.28852 -0.28852,0.28852 h -4.61635 l -0.28852,-0.28852 z m -6.92454,0 h 4.61636 l 0.28852,0.28852 -0.28852,0.28852 h -4.61636 l -0.28852,-0.28852 z m -6.92452,0 h 4.61635 l 0.28852,0.28852 -0.28852,0.28852 h -4.61635 l -0.28853,-0.28852 z m -5.85816,0 h 3.54998 l 0.28852,0.28852 -0.28852,0.28852 h -3.54998 l -0.28852,-0.28852 0.28852,-0.28852" /><path
   inkscape:connector-curvature="0"
   id="path264"
   style="fill:#ffffff;fill-opacity:1;fill-rule:nonzero;stroke:none;stroke-width:0.1"
   d="m 378.32677,-406.55666 h 4.61635 l 0.28852,0.28852 -0.28852,0.28853 h -4.61635 l -0.28853,-0.28853 z m -6.92453,0 h 4.61635 l 0.28852,0.28852 -0.28852,0.28853 h -4.61635 l -0.28853,-0.28853 z m -6.92453,0 h 4.61635 l 0.28852,0.28852 -0.28852,0.28853 h -4.61635 l -0.28852,-0.28853 z m -6.92453,0 h 4.61635 l 0.28852,0.28852 -0.28852,0.28853 h -4.61635 l -0.28852,-0.28853 z m -6.92453,0 h 4.61635 l 0.28853,0.28852 -0.28853,0.28853 h -4.61635 l -0.28852,-0.28853 z m -6.92453,0 h 4.61636 l 0.28852,0.28852 -0.28852,0.28853 h -4.61636 l -0.28852,-0.28853 z m -6.92452,0 h 4.61635 l 0.28852,0.28852 -0.28852,0.28853 h -4.61635 l -0.28853,-0.28853 z m -6.92453,0 h 4.61635 l 0.28852,0.28852 -0.28852,0.28853 h -4.61635 l -0.28853,-0.28853 z m -3.18529,0 h 0.87711 l 0.28852,0.28852 -0.28852,0.28853 h -0.87711 l -0.28852,-0.28853 0.28852,-0.28852" /><path
   inkscape:connector-curvature="0"
   id="path266"
   style="fill:#ffffff;fill-opacity:1;fill-rule:nonzero;stroke:none;stroke-width:0.1"
   d="m 314.24487,-411.75005 h 4.61635 l 0.28853,0.28852 -0.28853,0.28852 h -4.61635 l -0.28852,-0.28852 z m -6.92453,0 h 4.61636 l 0.28852,0.28852 -0.28852,0.28852 h -4.61636 l -0.28852,-0.28852 z m -6.35671,0 h 4.04854 l 0.28852,0.28852 -0.28852,0.28852 h -4.04854 l -0.28853,-0.28852 0.28853,-0.28852" />


</g></svg>