<?xml version="1.0" standalone="no"?>
<!DOCTYPE svg PUBLIC "-//W3C//DTD SVG 20010904//EN"
 "http://www.w3.org/TR/2001/REC-SVG-20010904/DTD/svg10.dtd">
<svg version="1.0" xmlns="http://www.w3.org/2000/svg"
 width="800.000000pt" height="435.000000pt" viewBox="0 0 800.000000 435.000000"
 preserveAspectRatio="xMidYMid meet">
<metadata>
Created by potrace 1.14, written by Peter Selinger 2001-2017
</metadata>
<g transform="translate(0.000000,435.000000) scale(0.100000,-0.100000)"
fill="#000000" stroke="none">
<path d="M3247 4321 c78 -40 166 -133 215 -226 71 -137 110 -272 198 -693 108
-515 185 -701 364 -868 135 -128 313 -220 498 -259 104 -22 309 -21 350 2 4 2
-1 23 -11 47 -21 47 -274 530 -479 914 l-130 242 87 -79 c257 -235 496 -503
593 -666 41 -68 130 -246 146 -294 6 -17 16 -31 21 -31 17 0 70 78 103 149
149 323 14 743 -362 1134 -294 306 -593 481 -996 583 -182 46 -313 64 -499 71
l-160 5 62 -31z"/>
<path d="M4440 3237 c0 -2 32 -58 70 -126 337 -588 442 -827 525 -1196 43
-193 56 -310 62 -556 8 -344 -22 -625 -108 -1012 -21 -98 -39 -191 -39 -206 0
-90 141 -119 213 -43 20 21 39 66 68 162 138 458 354 930 580 1267 165 245
378 469 564 592 125 82 117 89 -44 35 -379 -126 -609 -335 -866 -789 -38 -66
-87 -162 -110 -213 l-42 -93 -6 208 c-16 619 -231 1227 -592 1674 -139 173
-275 319 -275 296z"/>
<path d="M17 3089 c-16 -9 -17 -35 -17 -309 0 -349 4 -371 87 -452 77 -75 122
-93 228 -93 107 0 163 22 233 93 65 64 86 119 87 222 0 79 -3 90 -36 150 -60
110 -161 170 -283 170 -72 0 -130 -15 -168 -42 l-28 -19 0 135 c0 124 -2 136
-19 146 -25 13 -61 12 -84 -1z m381 -368 c67 -35 112 -104 112 -174 0 -46 -38
-115 -83 -151 -35 -28 -46 -31 -107 -31 -60 0 -74 4 -111 30 -83 59 -106 162
-55 249 51 87 158 121 244 77z"/>
<path d="M1396 3084 c-14 -13 -16 -55 -16 -304 0 -271 1 -293 21 -346 77 -206
345 -271 511 -125 100 88 135 230 87 356 -30 80 -104 154 -184 184 -78 30
-197 26 -262 -7 l-43 -22 0 120 c0 107 -2 122 -20 140 -24 24 -72 26 -94 4z
m411 -380 c66 -54 78 -78 78 -154 0 -61 -3 -72 -31 -106 -43 -54 -75 -75 -122
-81 -64 -9 -109 5 -154 45 -48 43 -68 85 -68 141 0 52 12 81 52 126 44 51 81
66 150 62 46 -3 65 -9 95 -33z"/>
<path d="M2089 3079 c-20 -20 -20 -28 -17 -313 l3 -291 33 -69 c27 -54 46 -76
92 -110 72 -53 130 -70 218 -64 82 6 144 34 202 91 127 125 127 327 0 455 -22
22 -62 50 -88 62 -88 42 -246 36 -307 -12 l-25 -19 0 130 c0 104 -3 133 -16
145 -22 22 -70 20 -95 -5z m392 -362 c24 -13 57 -42 73 -65 25 -35 29 -51 29
-102 0 -51 -4 -67 -29 -103 -39 -55 -96 -87 -157 -87 -159 0 -250 177 -154
302 61 79 152 100 238 55z"/>
<path d="M2796 3078 c-14 -19 -16 -76 -16 -413 0 -463 -7 -435 104 -435 58 0
76 4 89 18 35 38 9 112 -39 112 l-24 0 0 354 0 355 -22 15 c-33 23 -74 20 -92
-6z"/>
<path d="M6890 2935 c-243 -41 -499 -139 -687 -261 -103 -66 -253 -214 -301
-295 -66 -113 -98 -256 -82 -371 5 -33 11 -62 14 -65 3 -3 36 17 73 44 139
102 319 190 474 232 79 21 369 75 374 69 2 -2 -62 -39 -142 -82 -230 -124
-312 -183 -465 -337 -76 -76 -138 -145 -138 -153 0 -21 104 -72 199 -98 105
-29 343 -31 446 -4 233 61 369 180 657 571 77 105 176 234 219 287 138 167
273 258 409 276 l65 8 -50 23 c-146 66 -377 131 -554 155 -134 19 -403 20
-511 1z"/>
<path d="M732 2854 c-21 -15 -22 -20 -22 -198 0 -222 9 -256 84 -331 75 -75
113 -90 221 -90 73 0 98 4 134 22 l44 22 19 -25 c24 -30 70 -32 98 -4 19 19
20 33 20 295 l0 276 -25 24 c-29 30 -58 32 -85 5 -18 -18 -20 -33 -20 -167 0
-169 -8 -209 -53 -260 -56 -63 -134 -80 -205 -44 -90 46 -103 83 -110 294 -4
156 -6 169 -26 182 -26 19 -46 19 -74 -1z"/>
<path d="M3264 2859 c-98 -23 -206 -120 -233 -209 -18 -60 -14 -162 9 -223 28
-74 104 -149 179 -178 105 -40 265 -12 301 54 13 24 13 30 0 55 -19 34 -55 39
-117 18 -54 -19 -75 -20 -125 -6 -38 11 -108 68 -108 89 0 8 65 11 230 11 268
0 256 -5 248 109 -14 188 -199 324 -384 280z m162 -154 c36 -21 84 -77 84 -99
0 -3 -79 -6 -175 -6 -96 0 -175 3 -175 8 0 4 11 24 25 45 53 77 159 100 241
52z"/>
<path d="M3135 2051 c-11 -5 -28 -18 -38 -29 -45 -50 -46 -66 -47 -682 0 -368
4 -599 10 -622 15 -53 70 -98 121 -98 52 0 100 21 127 55 l22 28 0 636 c0 713
5 666 -74 702 -43 20 -88 23 -121 10z"/>
<path d="M811 2012 c-19 -9 -43 -33 -53 -52 -17 -33 -18 -72 -18 -633 0 -635
0 -638 48 -680 45 -41 146 -31 193 19 l24 26 5 406 5 407 26 56 c59 125 143
182 269 183 66 1 85 -3 135 -29 33 -17 75 -50 96 -75 65 -77 69 -110 69 -537
0 -428 0 -431 72 -463 79 -36 152 -19 185 43 16 29 19 75 23 442 l5 410 28 48
c72 122 137 162 262 161 65 0 89 -5 130 -26 65 -34 123 -90 149 -147 20 -44
21 -65 26 -463 l5 -416 24 -26 c55 -58 151 -58 208 -1 l34 34 -3 443 -3 443
-28 70 c-97 243 -350 400 -592 367 -134 -18 -270 -73 -346 -141 l-44 -39 -53
49 c-106 97 -255 146 -417 135 -97 -6 -182 -27 -231 -57 l-32 -19 -17 26 c-33
51 -121 69 -184 36z"/>
<path d="M3564 2016 c-56 -25 -92 -103 -75 -163 5 -17 99 -143 209 -280 l199
-249 -101 -130 c-56 -71 -137 -173 -182 -226 -44 -53 -92 -119 -107 -147 -26
-46 -27 -53 -16 -95 8 -31 23 -56 47 -77 32 -29 40 -31 91 -27 52 5 58 8 106
60 28 31 115 137 195 237 l145 181 28 -33 c16 -17 98 -119 184 -225 85 -106
168 -199 184 -207 35 -19 80 -19 122 -1 50 21 70 50 75 109 4 53 4 53 -74 157
-43 57 -135 173 -206 259 -70 86 -128 158 -128 161 0 5 214 274 302 381 20 24
52 68 72 98 60 88 45 170 -37 210 -97 47 -119 31 -332 -234 -97 -121 -181
-220 -186 -220 -4 0 -74 81 -154 180 -207 256 -210 261 -249 279 -41 19 -70
20 -112 2z"/>
<path d="M6015 933 c-121 -44 -205 -118 -258 -231 -30 -63 -32 -74 -32 -182 0
-109 2 -119 32 -182 44 -93 109 -160 201 -205 67 -34 84 -38 171 -41 109 -5
192 17 265 68 125 87 186 204 186 360 0 181 -86 317 -249 393 -58 28 -78 32
-166 34 -77 3 -112 -1 -150 -14z m382 -213 c118 -72 81 -244 -55 -258 -110
-10 -186 87 -146 187 32 81 129 115 201 71z"/>
<path d="M1656 353 c6 -56 6 -57 -10 -35 -21 27 -46 29 -46 3 0 -10 -7 -35
-15 -55 -14 -32 -14 -36 0 -36 8 0 20 9 27 20 18 28 50 27 46 -2 -4 -27 -24
-32 -84 -23 -40 6 -44 9 -44 35 0 22 5 29 23 32 12 2 20 8 17 13 -6 11 -46 12
-103 1 -40 -8 -42 -26 -1 -26 20 0 24 -5 24 -29 0 -22 -6 -30 -25 -35 -33 -8
-32 -26 1 -26 22 0 25 -4 22 -32 -2 -25 -9 -33 -33 -41 -39 -13 -40 -14 -25
-32 18 -22 30 -19 99 22 66 39 79 58 31 48 -27 -6 -30 -4 -30 18 0 16 7 26 20
30 11 3 20 1 20 -3 0 -5 17 -10 38 -12 l37 -3 -57 -59 c-32 -33 -56 -62 -53
-64 10 -10 67 23 96 56 19 22 29 28 25 16 -9 -28 -11 -122 -4 -130 4 -3 14 -4
23 -1 11 5 15 23 15 78 l0 72 35 -47 c36 -46 53 -53 103 -40 32 9 28 18 -17
39 -21 9 -56 35 -77 56 l-38 39 39 0 c47 0 71 13 60 30 -5 9 -23 11 -56 7 -47
-6 -49 -5 -49 18 0 21 5 25 30 25 20 0 30 5 30 15 0 14 -17 20 -47 16 -8 -1
-10 9 -6 34 6 37 -9 65 -33 65 -11 0 -13 -12 -8 -57z"/>
<path d="M3440 398 c0 -7 -3 -30 -6 -50 -9 -50 13 -51 44 -3 12 19 29 35 37
35 13 0 15 -26 15 -166 0 -157 -1 -166 -20 -171 -41 -11 -18 -23 45 -23 63 0
86 12 45 23 -19 5 -20 14 -20 172 0 150 2 166 17 163 9 -2 23 -18 32 -35 25
-52 47 -43 43 17 l-4 50 -114 0 c-84 0 -114 -3 -114 -12z"/>
<path d="M3940 396 c0 -8 7 -16 15 -20 12 -4 15 -31 15 -155 0 -157 -3 -181
-26 -181 -8 0 -14 -4 -14 -10 0 -6 44 -10 113 -10 l114 0 10 55 c8 44 7 55 -4
55 -7 0 -13 -4 -13 -9 0 -20 -51 -69 -77 -74 -48 -9 -53 -1 -53 85 0 76 1 79
22 76 15 -2 25 -13 32 -35 15 -55 26 -37 26 42 0 80 -8 94 -27 45 -8 -20 -18
-30 -32 -30 -19 0 -21 6 -21 75 0 74 0 75 26 75 36 0 61 -16 79 -50 21 -41 35
-37 35 9 0 71 0 71 -116 71 -82 0 -104 -3 -104 -14z"/>
<path d="M4541 388 c-5 -13 -23 -88 -41 -168 -17 -80 -38 -155 -46 -167 -20
-31 -18 -33 21 -33 36 0 43 8 25 26 -7 7 -7 27 1 62 12 49 14 52 45 52 30 0
33 -3 44 -52 11 -45 11 -53 -4 -63 -27 -20 -19 -25 39 -25 59 0 64 4 40 30 -8
9 -31 94 -52 188 -37 172 -52 203 -72 150z"/>
<path d="M957 394 c-4 -4 -7 -16 -7 -27 0 -22 -49 -117 -61 -117 -43 0 -55 54
-14 64 27 7 33 21 13 29 -19 7 -129 -17 -129 -28 0 -6 10 -12 23 -15 16 -4 24
-14 26 -33 3 -23 0 -27 -22 -27 -16 0 -26 -6 -26 -15 0 -9 9 -15 25 -15 22 0
25 -4 25 -35 0 -31 -3 -35 -36 -41 -25 -5 -34 -11 -32 -23 5 -28 45 -24 103
11 61 36 71 54 24 44 -28 -5 -30 -4 -27 21 2 14 9 29 17 31 8 3 11 0 7 -7 -4
-6 -2 -11 4 -11 22 0 60 33 87 76 l28 44 51 -56 c48 -55 52 -57 87 -50 20 4
37 11 37 16 0 6 -20 19 -43 30 -46 22 -102 73 -121 111 -12 24 -28 34 -39 23z"/>
<path d="M2210 326 c0 -86 -12 -106 -60 -106 -22 0 -40 -4 -40 -9 0 -18 29
-32 53 -26 22 6 25 4 20 -13 -3 -14 2 -25 16 -34 29 -18 27 -24 -19 -54 -22
-15 -40 -30 -40 -35 0 -13 62 9 85 31 21 20 22 20 38 2 10 -10 14 -22 10 -25
-3 -4 1 -7 9 -7 33 0 75 65 97 151 13 46 27 88 32 93 18 20 21 -5 5 -47 -22
-57 -21 -60 14 -55 27 4 30 2 30 -24 0 -16 -7 -44 -15 -64 -12 -30 -18 -34
-40 -28 -30 7 -31 -3 -6 -33 40 -48 69 -20 97 91 16 66 16 70 0 82 -10 7 -24
10 -32 7 -19 -7 -18 0 7 49 29 58 18 65 -78 49 -43 -7 -81 -15 -86 -18 -13 -8
3 -23 25 -23 19 0 20 -4 15 -48 -3 -26 -13 -67 -23 -90 -15 -40 -18 -42 -34
-27 -17 15 -17 20 -3 61 8 24 21 44 29 44 18 0 18 5 -3 30 -20 23 -53 27 -53
6 0 -15 -18 -32 -25 -24 -2 2 3 30 11 62 12 44 12 61 3 72 -25 30 -39 16 -39
-40z"/>
<path d="M2940 295 c0 -22 -74 -99 -126 -132 -47 -30 -58 -49 -21 -37 46 14
83 38 129 81 l47 46 43 -47 c55 -61 71 -69 119 -61 50 9 46 22 -12 45 -52 19
-138 79 -139 96 0 7 -7 15 -16 18 -22 9 -24 8 -24 -9z"/>
</g>
</svg>
